<?xml version="1.0" encoding="utf-8"?>
<!-- Generator: Adobe Illustrator 18.0.0, SVG Export Plug-In . SVG Version: 6.00 Build 0)  -->
<!DOCTYPE svg PUBLIC "-//W3C//DTD SVG 1.1//EN" "http://www.w3.org/Graphics/SVG/1.1/DTD/svg11.dtd" [
	<!ENTITY ns_flows "http://ns.adobe.com/Flows/1.0/">
	<!ENTITY ns_extend "http://ns.adobe.com/Extensibility/1.0/">
	<!ENTITY ns_ai "http://ns.adobe.com/AdobeIllustrator/10.0/">
	<!ENTITY ns_graphs "http://ns.adobe.com/Graphs/1.0/">
]>
<svg version="1.1" id="Layer_1" xmlns:x="&ns_extend;" xmlns:i="&ns_ai;" xmlns:graph="&ns_graphs;"
	 xmlns="http://www.w3.org/2000/svg" xmlns:xlink="http://www.w3.org/1999/xlink" xmlns:a="http://ns.adobe.com/AdobeSVGViewerExtensions/3.0/"
	 x="0px" y="0px" viewBox="0 0 2800 2800" height = "200" width = "180" enable-background="new 0 0 2800 2800" xml:space="preserve">
<g>
	<defs>
		<rect id="SVGID_1_" width="2800" height="2800"/>
	</defs>
	<clipPath id="SVGID_2_">
		<use xlink:href="#SVGID_1_"  overflow="visible"/>
	</clipPath>
	<g clip-path="url(#SVGID_2_)">
		<g>
			<g opacity="0.74">
				<g>
					<polygon fill-rule="evenodd" clip-rule="evenodd" fill="#72578E" points="2346.8,924.5 1828.2,1085.9 1864.2,409.1 
						2382.7,247.7 					"/>
					<polygon fill-rule="evenodd" clip-rule="evenodd" fill="#72578E" points="2907.5,752.1 2388.9,913.5 2424.9,236.7 2943.4,75.3 
											"/>
					<polygon fill-rule="evenodd" clip-rule="evenodd" fill="#72578E" points="2313.9,1645 1795.3,1806.4 1831.3,1129.7 
						2349.9,968.3 					"/>
					<polygon fill-rule="evenodd" clip-rule="evenodd" fill="#72578E" points="2874.6,1472.6 2356,1634 2392,957.3 2910.6,795.9 
											"/>
				</g>
				<polygon fill-rule="evenodd" clip-rule="evenodd" fill="#64497A" points="1864.2,409.1 1852.5,629.7 2371,468.3 2382.7,247.7 
									"/>
				<polygon fill-rule="evenodd" clip-rule="evenodd" fill="#64497A" points="2424.9,236.7 2413.2,457.3 2931.7,295.9 2943.4,75.3 
									"/>
			</g>
			<g>
				
					<rect x="1799.7" y="2028.5" transform="matrix(-0.9998 -2.078732e-002 2.078732e-002 -0.9998 4069.2446 4338.0645)" opacity="0.73" fill="#362148" width="515" height="238.8"/>
				<g>
					<g>
						<path fill="#D7C9D7" d="M2175.9,2030.9c-29-0.6-53,22.4-53.6,51.4v0c-0.6,29,22.4,53,51.4,53.6l117.3,2.4l2.2-105.1
							L2175.9,2030.9z"/>
						<path fill-rule="evenodd" clip-rule="evenodd" fill="#EAE2E7" d="M2317.2,2029l-55.8-1.2l-2.4,114.9l55.8,1.2
							c31.7,0.7,58-24.5,58.6-56.2v0C2374.1,2055.9,2348.9,2029.6,2317.2,2029z"/>
					</g>
					<g>
						<path fill="#D7C9D7" d="M2173.3,2159.7c-29-0.6-53,22.4-53.6,51.4v0c-0.6,29,22.4,53,51.4,53.6l117.3,2.4l2.2-105.1
							L2173.3,2159.7z"/>
						<path fill-rule="evenodd" clip-rule="evenodd" fill="#EAE2E7" d="M2314.5,2157.7l-55.8-1.2l-2.4,114.9l55.8,1.2
							c31.7,0.7,58-24.5,58.6-56.2v0C2371.4,2184.6,2346.2,2158.4,2314.5,2157.7z"/>
					</g>
				</g>
			</g>
			<g>
				<path opacity="0.73" fill-rule="evenodd" clip-rule="evenodd" fill="#362148" d="M629,229c0,0-170.9,25.9-175.4,21.1
					s-56.3,2178.2-46.8,2250.5c0,0,70.6,75.9,221.5,66.1C779.1,2556.9,629,229,629,229z"/>
				<g>
					<path fill="#645A93" d="M567.3,580.3c0,0-18.1-228.3,13.6-352.3c0,0,801.9-68.8,1396.2-2.2c0,0,39.4,172.6-8.9,429.2
						L567.3,580.3z"/>
					<path fill="#7669AD" d="M1977.1,225.7c-50-5.6-101.5-10.3-153.9-14.1c8.7,51.2,29.1,213.2-11.8,434.9l156.8,8.4
						C2016.4,398.4,1977.1,225.7,1977.1,225.7z"/>
					<path fill-rule="evenodd" clip-rule="evenodd" fill="#D7C9D7" d="M1949.1,533.7c-2.8-1.6-7.5-3-13.9-4.3
						c-62.4-37.5-242.7-85.5-762.8-66.7c0,0-552,26.7-586.3,88.1c-29.5,52.9-60.4,259.8-60.5,483.1l-0.8,13.2
						c-0.1,7.6,0.1,13.5-0.1,22.3c-0.4,15.1,0,28.1,0.9,42.7l2.5,31.2c12.5,261.5-8.8,1187.4,3.2,1260.4
						c12,73,876.1,61.8,950.8,63.2s417.8-3.6,435.4-19.5c16.3-14.7,40.9-1215.6,44.6-1400.3c2.8-16.5,5-32.7,4.9-46.3
						c-0.2-35.7-2-56.1,2.5-95.9c1.9-16.8,3.2-29.3,4-40.7C1973.7,864,2009.4,568.4,1949.1,533.7z"/>
					<path fill-rule="evenodd" clip-rule="evenodd" fill="#C0B3C0" d="M1968.4,620.4l3.2-3.2l1.6-1.6c-2.9-5-1.8-6-2.7-7.4
						c-0.1-0.2-0.2-0.4-0.4-0.6c-0.1-0.1-0.2-0.2-0.3-0.3c-0.9-0.9-2.7-2.3-6.2-4.6c-4.4-1-11.9-4.1-20-7.7
						c-1.6-0.7-3.2-1.5-4.9-2.2c-7.6-3.5-15.1-7-20.5-9.2c-17-7-28.8-13.9-46.2-16.5l-10-2.9c-2.8,1.8-4.5,2.9-5.6,3.8
						c-0.1,0.1-0.3,0.2-0.4,0.3c-1,0.9-1.3,1.5-1.4,2.4c0,0.3-0.1,0.6-0.1,1c0,0,0,0,0,0c0,0.4-0.1,0.8-0.1,1.4
						c0,0.2-0.1,0.4-0.1,0.7c-0.1,0.5-0.2,1.2-0.4,1.9c-0.2,0.6-0.4,1.4-0.6,2.2c-0.1,0.4-0.3,0.9-0.5,1.4c0,0.1-0.1,0.2-0.1,0.4
						l-48.4,139.7c-1,2.9-1.9,5.8-2.9,8.7c-1.4,4.3-2.9,8.5-4.2,12.7c-0.9,2.8-1.8,5.6-2.7,8.4c-4,12.5-7.6,25-10.5,38.4
						c-0.2,0.9-0.4,1.9-0.7,3.1c-0.2,1.1-0.5,2.3-0.8,3.6c-0.1,0.6-0.3,1.3-0.4,2c-0.3,1.3-0.6,2.8-0.9,4.2
						c-0.6,2.9-1.3,6.1-2.1,9.4c-0.5,2.5-1.1,5-1.7,7.5c-0.4,1.7-0.8,3.4-1.2,5.1c-0.6,2.5-1.2,5.1-1.8,7.5c-1,4.1-2.1,8-3.1,11.6
						c-1.6,5.7-3.2,10.4-4.6,13.3v0c-32.9,9.5-56.5,10-90.2,15.1c-9.8,1.5-21.3,5.3-29.3,5.3l-58.8,9.4c-18.7,2.5-39,4.5-59.2,4.2
						c-52.2-0.8-83-9.2-125.8-10.2c-3.4,8.9,4.2,6.2-4.1,23.2l-27.2,47.3c-5.1,8.2-9.8,11.8-15.3,20.1l-10.6-9.8
						c-12.9-10.1-44.1-45.4-52.8-60.5l-7.1-18.2l-10.1-3.3l-47.8,12.4c-24.6,6.1-50.2,11-72.2,21.4c-4.3,2-7,3.6-11.4,5.5
						c-3.8,1.7-7.1,2.1-11.7,4.2c-10,4.6-25.1,30.2-38.9,39.3c-29.4,19.4-57,34.8-85.2,54.3c-14.7,10.2-28.2,20.4-42.5,29.6
						l-63.4,41.2c-30.1,17-22.1,31.7-28.2,75c-2.8,19.6-11.7,39.2-14.9,58.9c-13.4,81.6-60.9,156.5-70.7,239.8
						c-0.9,8-2.1,19.6-1.5,27.3c1.1,13.7-1.3,15.4,12.7,19c-3.4,8.6-7,19.4-10.4,30.5c-0.1,0.4-0.2,0.8-0.4,1.2
						c-0.4,1.3-0.8,2.5-1.1,3.8c-3.8,13.1-7.1,26.1-8.9,36c-0.3,1.5-0.6,3.3-0.8,5.2c-0.1,0.6-0.2,1.3-0.3,1.9
						c-0.2,1.3-0.3,2.7-0.5,4.1c-0.1,0.7-0.1,1.4-0.2,2.2c-0.3,2.9-0.4,6-0.5,9.1c-0.1,7.3,0.4,14.6,2.2,20.6
						c0.2,0.8,0.5,1.6,0.8,2.3c0.7,1.9,1.6,3.5,2.6,5c0.1,0.2,0.2,0.4,0.4,0.5c2.4,3.1,5.7,4.9,10.1,4.9c0,0,0,0,0,0
						c10.7-0.6,13-6.1,19-17.8c7.2,7.9,4.2,11.2,8.3,21c0.2,0.5,0.4,1.1,0.7,1.6c1.6,3.7,3.3,7,5.6,9.4c0,0,0.1,0.1,0.1,0.1
						c1.9,2,4.3,3.4,7.3,3.6c0.1,0,0.1,0,0.2,0c1,0.1,2.1,0,3.3-0.2c13.4-7.6,8.9-19.3,11.5-31.5l0.2-4.2l1,2.6
						c3.1,3.7,5,7.3,6.9,10.8c4.4,8.3,8.1,15.6,24.7,21.3l3.2-4.6l6.6-19.5v0c9.6,8.6,13.5,11.8,25.5,12.4l5.1-6.5c0,0,0,0,0,0
						c10.8-21-12.7-60.6-15.8-80.7c-2.5-16.2,18.8-19.9,30.6-19.7c17.1,0.3,30.9,4.2,34.4-16.4c-13.8-17.7-39.6-12.8-62-25
						c5.4-3.6,10.9-4.5,14.1-9.9c2.4-4.1,3.7-11.7,4.5-20.2c0.1-1.3,0.2-2.6,0.3-4c0.8-11.4,0.8-23.5,1.5-30.6
						c3.2-33.2,5.9-62.7,9.2-91.6c0.4-3.8,0.9-7.6,1.3-11.4c1.2-9.6,2.4-19.3,3.8-28.9c0.5-3.6,1.1-7.3,1.6-10.9
						c0.4-2.8,0.9-5.6,1.3-8.5c0.6-3.8,1.3-7.7,1.9-11.5c3.2-18.4,6.9-37.4,11.5-57.8c4-17.6,5.1-26.2,6-30.6c0.2-0.8,0.3-1.4,0.5-2
						c0.2-0.5,0.3-1,0.6-1.4c1.7-3.1,5-1.4,18.2-9.6c40.8-25.2,67.1-30.6,104.2-51.4c2.3-1.3,5.5-3,9.3-4.9
						c6.8-3.4,15.5-7.5,24.7-11.8c1.2-0.5,2.3-1.1,3.5-1.6c2.9-1.3,5.9-2.6,8.8-3.9c1.2-0.5,2.3-1,3.5-1.5c1.2-0.5,2.3-1,3.5-1.5
						c0.6-0.2,1.2-0.5,1.7-0.7c1.1-0.5,2.3-1,3.4-1.4c2.3-0.9,4.5-1.9,6.6-2.7c1.1-0.4,2.1-0.9,3.2-1.3c1.6-0.6,3.1-1.2,4.5-1.7
						c7.7-2.9,13.9-4.9,17.2-5.3c2.7,6.7,4.3,13.3,5.1,19.9c0.2,1.7,0.4,3.3,0.5,5c0.1,1.7,0.2,3.3,0.3,5c0.1,1.7,0.1,3.3,0.1,5
						c0,1.7,0,3.4-0.1,5.1c-0.3,13.6-1.8,27.6-0.7,42.9c3,42-8.5,110.1-14.6,156.8c-0.9,6.7-1.6,12.9-2.2,18.6
						c-0.4,3.5-0.7,6.9-1.1,10c-7.1,59.3-15.3,59.1-21.1,74.5c-0.5,1.4-1,2.9-1.5,4.5c3,4.3,7.1,8.3,11.9,12
						c4.8,3.7,10.2,7.1,15.7,10.2c-21.6,51.4-57.1,100.7-88.9,150.9c-1,1.6-2,3.2-3.1,4.9c-5.3,8.4-10,16.8-14.8,25.1
						c-2.9,5-5.8,10-8.8,15l-70.2,111.5c-16.4,25.6-27.6,47.3-47.4,76.6c-1.2,1.8-2.6,3.9-4.1,6.1c-1,1.5-2,3-3,4.6
						c-1,1.6-2.1,3.2-3.2,4.8c-1.1,1.6-2.2,3.2-3.3,4.7c-1.1,1.6-2.2,3.1-3.3,4.5c-0.5,0.7-1.1,1.4-1.6,2.1
						c-1.1,1.4-2.1,2.7-3.2,3.9c-1,1.2-2.1,2.2-3,3.2c-31.3,29.4-56.6,45.3-86.9,69.9c-7.3,5.9-14.7,11.5-22,17.1
						c-8.6,6.5-17.1,13.1-25.2,20.1c-1.2,1-2.3,2-3.4,3.1c-2.3,2.1-4.5,4.2-6.7,6.4c-2.6,1.7-5,3.6-7.4,5.6c-1.6,1.3-3.3,2.7-5,4
						c-0.8,0.7-1.7,1.4-2.6,2c-1.7,1.3-3.6,2.7-5.5,3.9c-5.5,3.6-9.7,8-14.5,13.4c-1.6,1.8-3.3,3.7-5.1,5.8
						c-6.3,7.1-13.2,17.1-20.1,26.7c-1.5,2.1-3.1,4.2-4.6,6.3c-1.5,2.1-3.1,4.1-4.6,6c-2.3,2.9-4.5,5.5-6.7,7.9
						c-2.1,3.4-4,6.4-6.2,8.5c-1.3,1.3-2.8,2.3-4.6,2.9c-0.9,2.4-3.2,6.3-6.2,10.9c-0.5,0.8-1.1,1.7-1.7,2.5c-0.5,0.7-1,1.5-1.6,2.3
						c-0.8,1.1-1.6,2.2-2.4,3.3s-1.6,2.3-2.5,3.4c-1.3,1.7-2.5,3.4-3.8,5.1c-0.8,1.1-1.7,2.3-2.5,3.4c-0.4,0.6-0.8,1.1-1.2,1.6
						c-1.9,2.6-3.7,5-5.4,7.2c-0.5,0.7-1.1,1.4-1.6,2.1c-0.7,1-1.4,1.9-2,2.7c-0.2,0.3-0.5,0.6-0.7,0.9c-0.1,0.2-0.3,0.4-0.4,0.6
						c-0.3,0.5-0.7,1-1,1.5c-2.9,4.1-5.8,8.2-8.8,12.3c-2,2.7-4,5.3-6,7.8c-1.1,1.3-2.1,2.5-3.1,3.7c-1.9,2.2-3.7,4.1-5.6,6.3
						c-0.6,0.7-1.2,1.4-1.8,2.2c-0.6,0.8-1.2,1.6-1.9,2.5c-1,1.3-2,2.8-3,4.5l-8.9,15.5c-0.4,0.6-0.7,1.2-1.1,1.8
						c-0.3,0.5-0.7,1-1,1.5c-0.1,0.2-0.3,0.4-0.4,0.6c-0.5,0.8-1.1,1.5-1.7,2.3c-0.1,0.1-0.2,0.3-0.3,0.4c-2.6,3.4-5.4,6.9-7.6,10.6
						c-0.2,0.3-0.3,0.6-0.5,0.9c-1.2,2.1-2.2,4.3-2.9,6.6c-0.1,0.3-0.2,0.7-0.3,1c-0.2,0.7-0.3,1.4-0.4,2.1
						c-0.1,1.1-0.2,2.2-0.1,3.3c0,0.6,0.1,1.2,0.2,1.7c1.3,8,7.9,15.4,16.7,21.3c0.6,0.4,1.3,0.8,1.9,1.2l-1.4,2.1l-13.5,12.2
						c-3.7,4.6-11.1,9.9-19.1,14.7c-1.6,1-3.2,1.9-4.8,2.8c-7,4-13.9,7.5-18.6,9.7c-0.4,0.2-0.7,0.3-1.1,0.5
						c-7.8,3.7-18,9.4-27.6,13.7c0.2,33,0.5,60.6,1.2,81.6l6.7,4.2c4.7,0.9,8.5,1.3,11.9,1.3c1.3,0,2.6,0,3.8-0.2
						c1.2-0.1,2.4-0.3,3.5-0.5c2.8-0.5,5.6-1.3,8.6-2.3c1.2-0.4,2.5-0.8,3.9-1.3c7.6-2.5,7.8-0.6,16.9,1.5c2.4,0.5,4.6,0.8,6.7,1
						c3.6,0.3,7,0.3,10.7,0.5c2.2-0.8,3.5-1.1,4.8-1.4c0.3-0.1,0.5-0.1,0.8-0.2c0.6-0.1,1.2-0.3,1.9-0.5c4.2-1.4,5.2-2.4,9.3-3.7
						l2-2.2c15.5-9,20.6-29.2,34.2-39c4.7-4.4,7.1-7.3,13.4-9.1c9.9-8.8,23.4-5.8,34.8-10c15.4-5.7,16.7-17.5,22-33.4
						c10.2-4.4,6.3-2.4,12-11.7c4.2-6.9,9-13.1,13.3-20.1c8.3-13.3,16.5-25.4,24.6-38.3l12.6-19.1c7.4-14.9,16.7-27.4,26.2-39.9
						l54.2-78.2c7.7-10.7,19.1-27.5,27.6-36.1c2-3.3,1.6-3.3,4.2-6.3c0.4-0.5,1.8-1.9,2.2-2.3c2.8-2.6,1.2-1.3,3.7-2.5
						c3.6-9,38.7-50.4,47.4-59.6c18.1-19.1,32-38.2,51.2-54c12.9-10.9,22.2-21.5,35.2-33.2c12-10.8,23.3-22.2,34.9-34.3l104.3-107.1
						c44.3-39.2,64.2-73.3,106.5-105.2l38-25.7c15.1-9.2,23.5-9.6,43.7-10.4c13-0.5,7.2-4.6,23.4-1c36.3,8.1,30.2,3.8,79.5,18.5
						c18.8,5.6,32.3,6.8,52.2,13.8c55.9,19.5,117.9,45.8,165.5,77.6c-3.3,9.2-7.3,18.9-11.5,28.8c-7,16.5-14.3,33.4-19,49.2
						c-5.6,18.9-18.2,48.6-22.7,68.7c-0.3,1.4-0.6,2.8-0.8,4.1c-0.2,1.3-0.4,2.6-0.5,3.8c-7,23.8-7.9,46.2-10.1,69.5
						c-0.8,8.7-1.5,16.5-2.2,24.9c-0.2,2.8-0.4,5.7-0.6,8.7c-0.6,10.1-0.1,25.1-2,34.4l0.5,18c-3.3,37.7-2.8,69.8-6.3,104.9
						l-3.2,36.3c1.4,0.6,2.6,1,3.8,1.4c3.9,1.2,6.9,1.6,10.5,2.9c0.4,0.1,0.7,0.3,1.1,0.4c0.7,0.3,1.5,0.7,2.3,1.1
						c8.5,4.4,5.7,4.4,6.9,7c0.4,0.9,1.3,2,3.2,3.7c0.2,0,0.4,0,0.6,0c3-0.2,3.4-0.4,3.7-0.4c0.1,0,0.2,0,0.3,0.1
						c0.1,0,0.3,0.1,0.6,0.2c0.1,0,0.3,0.1,0.5,0.1c0.6,0.1,1.4,0.3,2.7,0.6c3.4,0.7,6.6,1.9,10,2.5c0.5,0.2,0.9,0.4,1.4,0.5
						c2.2,0.8,3.5,1.3,4.5,1.6c2,0.5,2.9,0.4,6.9,0.9c11.1,1.5,5.8,4.1,11.6-0.7c0,0,0,0,0,0c19.6,2.5,47.2-3.1,60.4-14.1
						c21.2-9.2,23.6-16.5,23.1-41.9c-0.3-17.8-1.2-33.7-1.8-51.3c-0.8-22.8-6.7-87.3,0-105.2c-2.9-5.6-1.4-13.4-0.2-20.5
						c-3.6-9.1,8.4-142,13.9-158.2c0.2-17.9,6.1-39.1,11-59.1c4.3-17.2,1.8-13.9-2.2-27.3c-4.3-14.5-13.3-34.1-21.6-47
						c-26.6-41.4-95.9-109.3-130.3-143.2c-42.8-42.2-35.8-38.4-85.9-76.8l1.1-3.2c2.9-1.6,3.3-1.9,6-3.8c1.9-11.8-6.9-31.4-9-52.9
						c-0.9-9.2-2.8-18.2-4-26.7c-1.3-9.2-1.9-16.6-3.7-25.3c-3.5-17.6-6.1-34.7-8.8-51.7c-9.7-60.6-6.5-49.4,2.8-112.3
						c3.1-21.1,6.6-38.6,14.2-60c9.3-26.3,21.9-31.4,39.8-40.2c16.6-8.1,31-14.9,47.4-20.4l97.7-36.7c19.6-8.4,60.7-19.9,73-27.2
						c29.4-17.4,50.4-20.4,62.9-50.7c7.3-17.8,10-41.4,14.4-60.3c9.6-40.2,25.8-84.9,40.5-124.5c7.3-17.9,16.4-36.1,24.5-53.8
						c5.2-11.5,8.6-14.7,13.4-24.1C1963.7,636.4,1964.8,628.7,1968.4,620.4z"/>
					<g>
						<path fill="#EAE2E7" d="M644.8,522L605,2434.4c14.9,2.7,31.8,5.2,50.3,7.5l40.2-1931.4C676.7,514.1,659.6,518,644.8,522z"/>
						<path fill="#EAE2E7" d="M846.4,488.6l-40.9,1966.1c16.4,1,33.3,1.9,50.4,2.7l41-1974.1C880.1,484.9,863.2,486.7,846.4,488.6z"
							/>
						<path fill="#EAE2E7" d="M1047.8,470.5l-41.4,1992.3c16.8,0.4,33.7,0.8,50.4,1.2L1098.3,467
							C1083.1,468,1066.1,469.1,1047.8,470.5z"/>
						<path fill="#EAE2E7" d="M1248.9,460.4l-41.7,2005.8c17.3,0.2,34.1,0.3,50.4,0.4l41.7-2007.2
							C1283,459.6,1266.1,459.9,1248.9,460.4z"/>
						<path fill="#EAE2E7" d="M1449.9,458.9l-41.7,2007.9c20.4,0,37.4,0,50.4,0l41.7-2006.9C1484.1,459.5,1467.3,459.1,1449.9,458.9
							z"/>
						<path fill="#EAE2E7" d="M1650.7,467.5l-41.6,1998.8c16.3-0.3,33.2-0.6,50.5-1L1701,472.2
							C1685.2,470.5,1668.4,468.9,1650.7,467.5z"/>
						<path fill="#EAE2E7" d="M1851,497.3l-40.8,1962.7c18.6-1,35.7-2.1,50.5-3.3l40.4-1943.7C1887.4,507.8,1870.9,502.5,1851,497.3
							z"/>
						<g>
							<path fill-rule="evenodd" clip-rule="evenodd" fill="#DCD4DA" d="M661.5,2100.7c-1.9,2.6-3.7,5-5.4,7.2
								c-0.5,0.7-1.1,1.4-1.6,2.1c-0.7,1-1.4,1.9-2,2.7c-0.2,0.3-0.5,0.6-0.7,0.9c-0.1,0.2-0.3,0.4-0.4,0.6c-0.3,0.5-0.7,1-1,1.5
								c-2.9,4.1-5.8,8.2-8.8,12.3c-2,2.7-4,5.3-6,7.8c-1.1,1.3-2.1,2.5-3.1,3.7c-1.9,2.2-3.7,4.1-5.6,6.3c-0.6,0.7-1.2,1.4-1.8,2.2
								c-0.6,0.8-1.2,1.6-1.9,2.5c-1,1.3-2,2.8-3,4.5l-8.9,15.5c-0.3,0.4-0.5,0.9-0.8,1.3l-1.1,51c0.8,0.6,1.7,1.2,2.5,1.8
								c0.6,0.4,1.3,0.8,1.9,1.2l-1.4,2.1l-3.2,2.9l-2.8,135.1c0.3-0.1,0.5-0.1,0.8-0.2c0.6-0.1,1.2-0.3,1.9-0.5
								c4.2-1.4,5.2-2.4,9.3-3.7l2-2.2c15.5-9,20.6-29.2,34.2-39c1.2-1.1,2.3-2.2,3.3-3.1l4.5-217.9
								C662.1,2099.9,661.8,2100.3,661.5,2100.7z"/>
							<path fill-rule="evenodd" clip-rule="evenodd" fill="#DCD4DA" d="M827.6,1928.6c-3.7,3-7.5,6-11.3,8.9l-4.2,203.2
								c0.4-0.6,0.9-1.1,1.3-1.7l50.7-73.2l3.5-167.9C854.6,1907.7,841.7,1917.3,827.6,1928.6z"/>
							<path fill-rule="evenodd" clip-rule="evenodd" fill="#DCD4DA" d="M827.3,1647.2c1.9,2,4.3,3.4,7.3,3.6c0.1,0,0.1,0,0.2,0
								c1,0.1,2.1,0,3.3-0.2c13.4-7.6,8.9-19.3,11.5-31.5l0.2-4.2l1,2.6c3.1,3.7,5,7.3,6.9,10.8c3.4,6.4,6.4,12.3,15.3,17.2
								l11.3-543c-7.2,12.6-4.9,28.8-9,57.9c-2.8,19.6-11.7,39.2-14.9,58.9c-5.8,35.6-18.2,69.9-31.1,104.2l-6.6,316
								C823.8,1642.5,825.3,1645.1,827.3,1647.2C827.2,1647.1,827.2,1647.1,827.3,1647.2z"/>
							<path fill-rule="evenodd" clip-rule="evenodd" fill="#DCD4DA" d="M1065.6,1621.8c-2.9,5-5.8,10-8.8,15l-34.4,54.6l-4.1,195.2
								c6.6-6.5,13-13,20.8-20c10.5-9.5,20.6-19.5,30.7-30l4.8-230.5C1071.5,1611.4,1068.6,1616.6,1065.6,1621.8z"/>
							<path fill-rule="evenodd" clip-rule="evenodd" fill="#DCD4DA" d="M1084.9,1112.6l3.1-148c-17.5,11.3-34.3,21.4-51.1,32
								l-2.9,139.5C1050.7,1128.7,1066.5,1122.4,1084.9,1112.6z"/>
							<path fill-rule="evenodd" clip-rule="evenodd" fill="#DCD4DA" d="M1286.6,880.8l-10.1-3.3L1240,887l-16.5,792.6
								c16.5-18.2,31.6-35.3,51.5-51.9l15.3-737.1L1286.6,880.8z"/>
							<path fill-rule="evenodd" clip-rule="evenodd" fill="#DCD4DA" d="M1441.1,881.2l-14.7,708.9c8.9,1.8,19.8,4.5,43,11.4
								c2.5,0.7,4.9,1.4,7.2,2l14.9-716.7C1473.3,885.2,1457.3,883,1441.1,881.2z"/>
							<path fill-rule="evenodd" clip-rule="evenodd" fill="#DCD4DA" d="M1676.7,869.9c-9.8,1.5-21.3,5.3-29.3,5.3l-5.3,0.8
								l-3,146.1l50.8-19.1l2.8-135.3C1687.6,868.3,1682.3,869.1,1676.7,869.9z"/>
							<path fill-rule="evenodd" clip-rule="evenodd" fill="#DCD4DA" d="M1629.3,1495.9l-3.4,162.3c17.5,8.6,34.3,17.7,49.9,27.4
								l2.9-140.3c-17.8-18.2-34.7-34.8-47.1-47C1630.8,1497.4,1630,1496.6,1629.3,1495.9z"/>
							<path fill-rule="evenodd" clip-rule="evenodd" fill="#DCD4DA" d="M1656.6,1770.8c-5.6,18.9-18.2,48.6-22.7,68.7
								c-0.3,1.4-0.6,2.8-0.8,4.1c-0.2,1.3-0.4,2.6-0.5,3.8c-7,23.8-7.9,46.2-10.1,69.5c-0.8,8.7-1.5,16.5-2.2,24.9
								c-0.2,2.1-0.3,4.2-0.4,6.4l-4.1,198.2c2.4,0.6,4.6,1,7.1,1.9c0.4,0.1,0.7,0.3,1.1,0.4c0.7,0.3,1.5,0.7,2.3,1.1
								c8.5,4.4,5.7,4.4,6.9,7c0.4,0.9,1.3,2,3.2,3.7c0.2,0,0.4,0,0.6,0c3-0.2,3.4-0.4,3.7-0.4c0.1,0,0.2,0,0.3,0.1
								c0.1,0,0.3,0.1,0.6,0.2c0.1,0,0.3,0.1,0.5,0.1c0.6,0.1,1.4,0.3,2.7,0.6c3.4,0.7,6.6,1.9,10,2.5c0.5,0.2,0.9,0.4,1.4,0.5
								c2.2,0.8,3.5,1.3,4.5,1.6c1.6,0.4,2.5,0.4,5,0.7l9.2-443.3C1668.2,1739,1661.2,1755.5,1656.6,1770.8z"/>
							<path fill-rule="evenodd" clip-rule="evenodd" fill="#DCD4DA" d="M1872.1,567.1l-10-2.9c-2.8,1.8-4.5,2.9-5.6,3.8
								c-0.1,0.1-0.3,0.2-0.4,0.3c-1,0.9-1.3,1.5-1.4,2.4c0,0.3-0.1,0.6-0.1,1c0,0,0,0,0,0c0,0.4-0.1,0.8-0.1,1.4
								c0,0.2-0.1,0.4-0.1,0.7c-0.1,0.5-0.2,1.2-0.4,1.9c-0.2,0.6-0.4,1.4-0.6,2.2c-0.1,0.4-0.3,0.9-0.5,1.4c0,0.1-0.1,0.2-0.1,0.4
								l-3.8,10.9l-7.3,348.9c9.7-6.5,17.6-14.8,23.5-29.2c7.3-17.8,10-41.4,14.4-60.3c4.1-17.4,9.5-35.6,15.5-53.9l4.6-220.5
								C1891,571.8,1882.5,568.7,1872.1,567.1z"/>
						</g>
					</g>
					<g>
						<path fill-rule="evenodd" clip-rule="evenodd" fill="#F5ECE1" d="M1763.6,592.5l-2.1-101.8c-1.3-9.6-3.9-3.5,1.6-15.4
							c-6.2-2.7-7.6-2-13.4-4.1l-47.2-19.5c-34.1-13.8-105.5-29.9-141.7-34.1c-58.9-6.9-125.1-8.6-188.3-15.8l-78-2.2
							c-42.5,1.4-85.8,2.7-128.1,6.7c-64,5.9-42.8,6-97.4,17.5c-8.3,1.8-14.8,3.6-23.1,5.8c-16.4,4.5-17.2,5-21.9,13l-24,39.5
							L983.7,526c-7.5,15.9-5.7,17.3-9.3,30.4c-10.5,48.3-12.9,116.8-2.3,162.3l22.7,71.7c5.3,20.4,13.1,56.7,25.2,72.3
							c14,17.9,9.6,15.3,35.8,23.2c46.7,14,81.6,11.5,125.2,9.5c8.1-0.4,16-1,23.8-1.8l0,0c0,0,289.7-7.8,340.1-5.8
							c11.9,1.1,24.6,1.9,39.1,2.1c20.3,0.3,40.5-1.7,59.2-4.2l58.8-9.4c18.8-23.1,43.1-118.1,48.3-147
							c6.6-37.4,10.4-66.5,11.8-103.8C1762.5,614.9,1762.1,602.4,1763.6,592.5z"/>
						<path fill-rule="evenodd" clip-rule="evenodd" fill="#E6CDC0" d="M1391.7,504.1c-22.9-0.5-56.5-7.3-78.1,1.2
							c-20.7,8.2-25.5,30-40.6,42.7c-15.4,12.9-39.8,14.1-54,25.1c-22.5,17.5-10.9,35.1-8.1,58.5c2.9,24.5-10.1,48.8,0.1,72.8
							c12.3,29,24,31.6,25.1,65.5c1.2,36.2,22.5,35.4,43.4,54.7c19.7,18.1,14.9,49.3,17.2,73.3c1.3,13.9,5.2,28.1,4.1,42.5
							c34.6,2.4,44.4-3.5,63.2-34c24.1-39.3,31-86.9,41-131.3c9.2-40.6,28.4-77.3,32.4-119.5
							C1442.4,602.8,1450.7,505.3,1391.7,504.1z"/>
					</g>
					<g>
						<path fill-rule="evenodd" clip-rule="evenodd" fill="#7669AD" d="M2006.7,2069.9c34.1-42.5,45.8-77.7,33.1-134.5
							c-3.1-13.9-13.9-24-26.3-34.8c-13.9-12.2-23.9-18.9-44.1-28.2c15.6-33.9,42.9-69.7,21.5-111.8c-5.6-11.1-24.9-30.4-35.8-40.2
							c-16.4-14.7-28.4-23.4-53.7-29.9c-11.4-6.7-7.7-8.2-20.3-8.9c-5.8,7.2-4,21.6-19.2,52.6c-5,10.2-9.6,16.6-14.3,21.9
							c-72.1,77.8-160.4,92.5-160.4,92.5l-74.4,18.4c-24.5,6.1-52,8.4-76.7,13.5c-12.8,2.6-24.7,6.4-38.2,9
							c-13.7,2.7-24.2,5.8-37.4,7.2c-30.3,3.4-55.1-6.9-87.1-19.5c-83.7-33.1-71.3-34.5-172.5-28.3c-39.2,2.4-81.2,27.8-113.5,42.4
							c-3.2,1.4-6.2,2.6-9.1,3.9c-7.3,2.9-14,5.1-19.9,5.8c-2.6,2.2-5.1,4.4-7.6,6.7c-40.2,19.6-15.9,15.5-116.9,44.4
							c-102.4,29.3-177.9-42.9-199.9-67.4c-2.2-2.7-4.4-5.3-6.6-7.8c0,0,0,0,0,0c-10.5-12.3-19.9-22.8-25.7-28.6
							c-28.9-28.6-30-40.2-75.4-61.1c-13.1-6-42-16-50.8-22.7c-12-9.2-22.8-22.6-24.2-35.7l-0.9-2.6l-1.1-2.7l0.2-4.3l-1.2-2.7
							l0.8-1.8l-1-2.6c1.3-16.3,11.6-26.5,6.9-42.6c-3-10.3-8.6-18-10.4-28.7c-0.3-1.7-3.4-22.6-5.8-21.3c0,0-9.5,5.2-9.5,5.2
							c-26,21.8-45.7,39.6-47.6,77.8c-0.4,8.4,0.8,17.3,0.1,23.9c-1.3,11.9-16.1,17-34.9,32.6l-54.5,53.3
							c-21.2,27.5-34.9,67.9-21.1,101.6c7.3,17.9,12.9,19.5,16.7,42.8c-4.6,5.9-10,8.8-15.2,15.1l-30.9,36.8
							c-4.8,6-10.2,10.5-13,21.9c-9.3,36.8,8.1,53.8,18.3,82.3c13.2,36.8-54.4,58.7-62,132.7c-1.7,16.2-4.1,30.6,1.4,44
							c14.5,35.3,9.4,32.1,32.2,77.1c10.7,21.2,16.8,35.7,30.4,55.5l31.8,55c9.9,20.1,35.7,52,52.4,69.7
							c26.8,28.2,54.6,33.8,90.8,39.1c20.8,3.1,16.9,6.2,47.2,7.4c38.7,1.6,93.9,1.1,131.7-4.9c15.1-2.4,26.8-5.4,41.7-7.7
							l120.4-35.5c24-8.9,54.4-16.7,80.4-23.3l22-0.8c29.5,1.5,101.6,41.3,121.9,56.2c13.3,9.7,27.6,21.1,41.8,29.1
							c33.6,18.7,121.4,47.6,152.2,51c46.3,5,66.8-2.8,104.8-17.6c55.7-21.8,71.2-72.5,118.3-101.5c12.7-7.8,24.8-10.8,39.1-14.7
							l48.4-17.7c4.8-1.9,6.3-3.3,10.1-4.9l59.6-19.3c13.9-3.8,26.8-7.2,41-9.6c41.5-7,145.7-4.4,174.6-9.3c7.4-1.3,14-2.2,20.3-5.4
							c7.8-3.9,10.7-4,18.5-10.3l33.4-30.1c17.9-21.5,40.5-69.4,43.8-97.4c4.4-37.1-0.1-39.4-6-64.5c-4-17.2-11.1-45.3-18.5-59.9
							c-17.4-34.6-22-44.3,6.3-86.3C1986.6,2094.4,1996.2,2083,2006.7,2069.9z"/>
						<g>
							<g>
								<path fill-rule="evenodd" clip-rule="evenodd" fill="#7261A8" d="M1329.1,2161.8c69.2,21.5,83.1,92.2,158.8,130.2
									c50.1,25.1,62.2,18.3,102,19.3c5.4,0.1,20.4,3.1,16.2-9.4c-3-9-15.3-6.8-21.9-6.1c-14.6,1.7-30.3,2.4-48.2-2
									c-133.5-33.2-100.7-146.5-263-157.6c-18-1.2-30.3,1.1-45.8,4.7l-109.3,29.5c-67,24-117.5,35.3-187.5,70.6
									c-5.2,2.6-19.2,5.8-15.8,15.3c3.4,9.4,16.3,1.6,21.2-0.8l82.1-34.7c36.1-14.1,112.6-39.8,148.4-47.9
									c38.1-8.7,70.9-23.8,111-20.8C1296.6,2153.5,1308.5,2155.4,1329.1,2161.8L1329.1,2161.8z"/>
								<path fill-rule="evenodd" clip-rule="evenodd" fill="#7261A8" d="M959.9,2014.6c-2.5,1.2-0.9-0.1-3.7,2.5
									c-0.5,0.4-1.8,1.8-2.2,2.3c-2.6,3-2.2,3-4.2,6.3c7.8,10.9,39.9,3,58.4,0c18.5-2.9,98-33.4,111-41
									c51.2-30,120.8-36.1,182.9-14.7c33.3,11.4,118.9,62.3,141.8,61.8l2.8-9.4c-6.5-8.6-22.6-11-33.2-15.8
									c-78.7-36.1-126.3-80.4-234.3-59.8c-50.1,9.6-59.7,22.4-109.3,41.6l-27,11.2C1023.1,2007.6,966.3,2020.3,959.9,2014.6
									L959.9,2014.6z"/>
								<path fill-rule="evenodd" clip-rule="evenodd" fill="#7261A8" d="M737.9,2069.4c4.7-1.7,7.4-5.9,10.8-11.4
									c-50.4-27.6-51.6-102-115.3-171.2c-12.4-13.5-24.3-26.5-38.5-39.2c-13-11.6-32.4-25.7-43-37.5
									c-9.1-10.1-39.1-50.5-34.6-66.1c1.8-6.1,4-6.9-1-11.2c-4.7-4-9.6-3.4-12.8-0.7c-17.2,14.4,24.3,75.3,39.2,90.5
									c12.1,12.3,30,25.7,43.2,37.4C687.6,1950.4,674.6,2026.3,737.9,2069.4L737.9,2069.4z"/>
								<path fill-rule="evenodd" clip-rule="evenodd" fill="#7261A8" d="M841.8,2180l-12.6,19.1c23.2-6.6,29.2-2.9,62-16l98.1-35.7
									l141-40.1c5.9-1.6,15.9-1.5,14.6-11.6c-1.3-3.2,4.1-0.3-4.3-4.9c-7.3-4-1.7-1.2-6-0.9L992,2130.4
									c-23.7,6.6-48.2,18.1-74.7,26.8C896.3,2164.2,865.6,2179.1,841.8,2180L841.8,2180z"/>
								<path fill-rule="evenodd" clip-rule="evenodd" fill="#7261A8" d="M653.6,2241.3l13.5-12.2c-23.1-6.7-53.5-21.4-77-30.2
									c-33.3-12.4-215.5-77.7-224.3-77.5c-13.8,20.1,5.3,14.5,17.3,19.5c13.1,5.5,25.2,10.3,38.6,15.2
									C488.3,2180.7,598.2,2212.6,653.6,2241.3L653.6,2241.3z"/>
								<path fill-rule="evenodd" clip-rule="evenodd" fill="#7261A8" d="M1192.5,2042.3c12.6,10.9,5.4,2,32.9-3
									c32.7-6.1,77.1-4.8,110.9,6.9c22.7,7.8,48.4,31.2,71.3,44.2c13.1,7.5,25.7,13.7,39.2,20.8c13.6,7.1,29.3,20.5,32.8,1.5
									c-8.9-8.6-60.2-32.6-76.8-43c-24.5-15.3-43.4-34.2-73.1-41.6c-33.9-8.4-76.6-10.4-108.4-3.8
									C1208.1,2027,1196.7,2026.5,1192.5,2042.3L1192.5,2042.3z"/>
								<path fill-rule="evenodd" clip-rule="evenodd" fill="#7261A8" d="M665.9,2171.6l8.9-15.5c-16.2,1.4-67.3-29.7-79.1-40.3
									c-23.2-20.9-87.7-80.7-105.3-102.1c-11.2-13.7-30.9-31.6-36.1-40c-4-6.4-3.5-8.1-11.9-9.7c-15,17.7,13.8,30.3,35.8,58.7
									c13,16.8,33.3,37.2,52.5,53.4C584.5,2121.5,590.7,2143.5,665.9,2171.6L665.9,2171.6z"/>
								<path fill-rule="evenodd" clip-rule="evenodd" fill="#7261A8" d="M1682,2224.9c-3-5.1-4.1-10.2-7.3-15.2
									c-34.1,11.2-87,19.9-122,12.4c-26-5.5-47.8-16.5-69.1-32.2c-11.3-8.4-45.4-40.7-56.3-42c-11.8,10.2,2.7,17.2,12.4,25.7
									c10.1,8.8,18.7,16.3,29.6,24.6C1567.8,2273.6,1639.9,2227.2,1682,2224.9L1682,2224.9z"/>
								<path fill-rule="evenodd" clip-rule="evenodd" fill="#7261A8" d="M539.2,2299.9c6.1-11.3,13.8-4.7,24.7-11.8
									c-19.8-4.6-39.3-8.1-58.9-16.6c-31.5-13.8-112.7-104.1-132-101.5c-3.5,1-5.3,0.6-8,6.2c-7.1,14.9,11,9.3,22.8,19.4
									l58.3,49.8C514.6,2307.8,504.2,2279,539.2,2299.9L539.2,2299.9z"/>
								<path fill-rule="evenodd" clip-rule="evenodd" fill="#7261A8" d="M1815.3,1934.1c-1.1,7.1-2.6,14.9,0.2,20.5
									c20.4-16.6,70.8-21.4,111.8-59.3c8.9-8.2,32.2-31.9,8.8-36.5c-4.9,5.7-6.2,11.7-11.3,17.6c-3.7,4.3-9.6,9.2-14.4,13.1
									C1890,1905.8,1823.6,1935.5,1815.3,1934.1L1815.3,1934.1z"/>
								<path fill-rule="evenodd" clip-rule="evenodd" fill="#7261A8" d="M1708.7,2244.2l-19.6-10.9c-10.8,9.6-87.6,86-61.7,93.6
									c9,2.6,19.3-25.7,38.1-48.3c6.6-7.9,13-14.9,20.3-21.4C1706.8,2238.5,1697.1,2247.1,1708.7,2244.2L1708.7,2244.2z"/>
								<path fill-rule="evenodd" clip-rule="evenodd" fill="#7261A8" d="M1827.6,2186.2l11.3,15.1c7.1-3,15-2.4,22.5-2.3
									c8.4,0.2,15.1-0.3,23.8,0.1c12.2,0.6,41.5,7.8,49.4,5.7c9.9-19.9-37.5-20.4-49.1-21
									C1871.6,2183.1,1837.3,2181.8,1827.6,2186.2L1827.6,2186.2z"/>
								<path fill-rule="evenodd" clip-rule="evenodd" fill="#7261A8" d="M1806.5,2164c3.2,3.5,8,7.9,11.4,11.1
									c16.5-6,27-9.7,46.6-12.1c16.4-2,49.1-2.4,43.6-15.8c-5.8-8.2-15.6-3.3-25-2.3l-51.4,9.3
									C1823.5,2156.4,1812.2,2158.1,1806.5,2164L1806.5,2164z"/>
								<path fill-rule="evenodd" clip-rule="evenodd" fill="#7261A8" d="M554,2339.1c-2.4-6.9-6.8-10.6-10.9-15.7
									c-8.2,4.8-79.6,28.4-77.2,46.6c4.6,10.5,12.5,2.9,20.3-2.3c13.9-9.3,29.9-16.9,44.7-23.4c11.2-4.9,9.9-3.4,20.3-4.7
									L554,2339.1L554,2339.1z"/>
								<path fill-rule="evenodd" clip-rule="evenodd" fill="#7261A8" d="M1672.8,2004l-0.5-18c-14.6,7.1-54.2,12-72.4,10.7
									c-29.3-2-25.1,15.8,4.3,15.7l45.8-4.3C1658.4,2006.6,1664.5,2004.7,1672.8,2004L1672.8,2004z"/>
								<path fill-rule="evenodd" clip-rule="evenodd" fill="#7261A8" d="M1713.8,2246.3c-9.1,15-34.8,56-33.4,71l8,4.1
									c9.1-6.5,20.5-39.2,33.4-59.1c8.3-12.9,3.9-7.9,15.6-9.4l4.7-8l-2-0.9C1730.7,2252.5,1723.3,2245.8,1713.8,2246.3
									L1713.8,2246.3z"/>
								<path fill-rule="evenodd" clip-rule="evenodd" fill="#7261A8" d="M709.2,2321.6c16.9,10.1,49.7,42.8,64.4,45.2
									c11.3-13.7-6.1-19.3-18.7-29.3c-10.3-8.2-21.2-19.4-32.3-24.9C716.4,2314.3,714,2317.1,709.2,2321.6L709.2,2321.6z"/>
								<path fill-rule="evenodd" clip-rule="evenodd" fill="#7261A8" d="M590.3,2368.5l-16.9-10.5c-7.4,6.5-45.8,33.5-41.9,45.7
									C539,2424.2,554.2,2382.6,590.3,2368.5L590.3,2368.5z"/>
								<path fill-rule="evenodd" clip-rule="evenodd" fill="#7261A8" d="M656.2,2368.6c4.9,6.3,7.8,21.1,14.7,31.2
									c5.9,8.7,16.4,21.4,27.1,23.1c14.7-17-24.6-26.3-25-60c-4.2,1.3-5.2,2.3-9.3,3.7C660.9,2367.3,659.6,2367.2,656.2,2368.6
									L656.2,2368.6z"/>
							</g>
						</g>
						<g>
							<path fill-rule="evenodd" clip-rule="evenodd" fill="#645A93" d="M1360.3,2593c-30.8-3.3-118.7-32.2-152.2-51
								c-14.2-7.9-28.5-19.3-41.8-29.1c-20.3-14.9-92.4-54.6-121.9-56.2l-22,0.8c-26,6.6-56.4,14.4-80.4,23.3l-120.4,35.5
								c-14.9,2.3-26.5,5.3-41.7,7.7c-37.8,6-93,6.5-131.7,4.9c-30.3-1.2-26.4-4.3-47.2-7.4c-36.2-5.3-64-10.9-90.8-39.1
								c-16.7-17.6-42.5-49.5-52.4-69.7l-31.8-55c-13.5-19.9-19.6-34.4-30.4-55.5c-22.8-45-17.7-41.8-32.2-77.1
								c-5.5-13.4-3.1-27.8-1.4-44c7.6-74,75.2-95.9,62-132.7c-10.2-28.5-27.6-45.5-18.3-82.3c2.9-11.4,8.3-15.9,13-21.9l30.9-36.8
								c5.3-6.3,10.6-9.1,15.2-15.1c-3.7-23.3-9.4-24.9-16.7-42.8c-13.8-33.7-0.1-74.1,21.1-101.6l54.5-53.3
								c13.9-11.5,25.6-17.3,31.3-24.3c-0.1-0.3-0.1-0.5-0.2-0.8c-3-10.3-8.6-18-10.4-28.7c-0.3-1.7-3.4-22.6-5.8-21.3
								c0,0-9.5,5.2-9.5,5.2c-26,21.8-45.7,39.6-47.6,77.8c-0.4,8.4,0.8,17.3,0.1,23.9c-1.3,11.9-16.1,17-34.9,32.6l-54.5,53.3
								c-21.2,27.5-34.9,67.9-21.1,101.6c7.3,17.9,12.9,19.5,16.7,42.8c-4.6,5.9-10,8.8-15.2,15.1l-30.9,36.8
								c-4.8,6-10.2,10.5-13,21.9c-9.3,36.8,8.1,53.8,18.3,82.3c13.2,36.8-54.4,58.7-62,132.7c-1.7,16.2-4.1,30.6,1.4,44
								c14.5,35.3,9.4,32.1,32.2,77.1c10.7,21.2,16.8,35.7,30.4,55.5l31.8,55c9.9,20.1,35.7,52,52.4,69.7
								c26.8,28.2,54.6,33.8,90.8,39.1c20.8,3.1,16.9,6.2,47.2,7.4c38.7,1.6,93.9,1.1,131.7-4.9c15.1-2.4,26.8-5.4,41.7-7.7
								l120.4-35.5c24-8.9,54.4-16.7,80.4-23.3l22-0.8c29.5,1.5,101.6,41.3,121.9,56.2c13.3,9.7,27.6,21.1,41.8,29.1
								c33.6,18.7,121.4,47.6,152.2,51c46.3,5,66.8-2.8,104.8-17.6c35.7-13.9,54.9-39.8,76.5-64.2
								C1426.9,2590.3,1406.3,2598.1,1360.3,2593z"/>
							<path fill-rule="evenodd" clip-rule="evenodd" fill="#645A93" d="M1956.1,2398.6c-28.9,4.9-133.1,2.2-174.6,9.3
								c-14.1,2.4-27.1,5.8-41,9.6l-59.6,19.3c-3.8,1.6-5.3,3-10.1,4.9l-48.4,17.7c-14.2,3.9-26.4,6.9-39.1,14.7
								c-24.4,15-40.3,35.9-57.8,55.5c6.3-2.2,12.8-3.8,19.8-5.7l48.4-17.7c4.8-1.9,6.3-3.3,10.1-4.9l59.6-19.3
								c13.9-3.8,26.8-7.2,41-9.6c41.5-7,145.7-4.4,174.6-9.3c7.4-1.3,14-2.2,20.3-5.4c7.8-3.9,10.7-4,18.5-10.3l33.4-30.1
								c4.5-5.4,9.2-12.4,13.9-20.3C1962.1,2397.6,1959.2,2398.1,1956.1,2398.6z"/>
						</g>
						<g>
							<g>
								<g>
									<path fill-rule="evenodd" clip-rule="evenodd" fill="#645A93" d="M1762.8,2109.9c-0.3-17.8-1.2-33.7-1.8-51.3
										c-0.8-22.8-6.7-87.3,0-105.2c-2.9-5.6-1.4-13.4-0.2-20.5c-2.4-6.2,2.4-70,7.4-115.1c-44.9,24.7-81,30.7-81,30.7l-58.4,14.5
										c-3.6,18.2-4.6,35.8-6.3,53.9c-0.8,8.7-1.5,16.5-2.2,24.9c-0.2,2.8-0.4,5.7-0.6,8.7c-0.6,10.1-0.1,25.1-2,34.4l0.5,18
										c-3.3,37.7-2.8,69.8-6.3,104.9l-3.2,36.3c1.4,0.6,2.6,1,3.8,1.4c3.9,1.2,6.9,1.6,10.5,2.9c0.4,0.1,0.7,0.3,1.1,0.4
										c0.7,0.3,1.5,0.7,2.3,1.1c8.5,4.4,5.7,4.4,6.9,7c0.4,0.9,1.3,2,3.2,3.7c0.2,0,0.4,0,0.6,0c3-0.2,3.4-0.4,3.7-0.4
										c0.1,0,0.2,0,0.3,0.1c0.1,0,0.3,0.1,0.6,0.2c0.1,0,0.3,0.1,0.5,0.1c0.6,0.1,1.4,0.3,2.7,0.6c3.4,0.7,6.6,1.9,10,2.5
										c0.5,0.2,0.9,0.4,1.4,0.5c2.2,0.8,3.5,1.3,4.5,1.6c2,0.5,2.9,0.4,6.9,0.9c11.1,1.5,5.8,4.1,11.6-0.7c0,0,0,0,0,0
										c19.6,2.5,47.2-3.1,60.4-14.1C1760.9,2142.7,1763.3,2135.3,1762.8,2109.9z"/>
								</g>
								<g>
									<path fill-rule="evenodd" clip-rule="evenodd" fill="#645A93" d="M934,1952.1c-47.9,13.7-90,5.2-123.4-10.3
										c-1.7,1.3-3.4,2.5-5,3.8c-8.6,6.5-17.1,13.1-25.2,20.1c-1.2,1-2.3,2-3.4,3.1c-2.3,2.1-4.5,4.2-6.7,6.4
										c-2.6,1.7-5,3.6-7.4,5.6c-1.6,1.3-3.3,2.7-5,4c-0.8,0.7-1.7,1.4-2.6,2c-1.7,1.3-3.6,2.7-5.5,3.9c-5.5,3.6-9.7,8-14.5,13.4
										c-1.6,1.8-3.3,3.7-5.1,5.8c-6.3,7.1-13.2,17.1-20.1,26.7c-1.5,2.1-3.1,4.2-4.6,6.3c-1.5,2.1-3.1,4.1-4.6,6
										c-2.3,2.9-4.5,5.5-6.7,7.9c-2.1,3.4-4,6.4-6.2,8.5c-1.3,1.3-2.8,2.3-4.6,2.9c-0.9,2.4-3.2,6.3-6.2,10.9
										c-0.5,0.8-1.1,1.7-1.7,2.5c-0.5,0.7-1,1.5-1.6,2.3c-0.8,1.1-1.6,2.2-2.4,3.3s-1.6,2.3-2.5,3.4c-1.3,1.7-2.5,3.4-3.8,5.1
										c-0.8,1.1-1.7,2.3-2.5,3.4c-0.4,0.6-0.8,1.1-1.2,1.6c-1.9,2.6-3.7,5-5.4,7.2c-0.5,0.7-1.1,1.4-1.6,2.1
										c-0.7,1-1.4,1.9-2,2.7c-0.2,0.3-0.5,0.6-0.7,0.9c-0.1,0.2-0.3,0.4-0.4,0.6c-0.3,0.5-0.7,1-1,1.5c-2.9,4.1-5.8,8.2-8.8,12.3
										c-2,2.7-4,5.3-6,7.8c-1.1,1.3-2.1,2.5-3.1,3.7c-1.9,2.2-3.7,4.1-5.6,6.3c-0.6,0.7-1.2,1.4-1.8,2.2
										c-0.6,0.8-1.2,1.6-1.9,2.5c-1,1.3-2,2.8-3,4.5l-8.9,15.5c-0.4,0.6-0.7,1.2-1.1,1.8c-0.3,0.5-0.7,1-1,1.5
										c-0.1,0.2-0.3,0.4-0.4,0.6c-0.5,0.8-1.1,1.5-1.7,2.3c-0.1,0.1-0.2,0.3-0.3,0.4c-2.6,3.4-5.4,6.9-7.6,10.6
										c-0.2,0.3-0.3,0.6-0.5,0.9c-1.2,2.1-2.2,4.3-2.9,6.6c-0.1,0.3-0.2,0.7-0.3,1c-0.2,0.7-0.3,1.4-0.4,2.1
										c-0.1,1.1-0.2,2.2-0.1,3.3c0,0.6,0.1,1.2,0.2,1.7c1.3,8,7.9,15.4,16.7,21.3c0.6,0.4,1.3,0.8,1.9,1.2l-1.4,2.1l-13.5,12.2
										c-3.7,4.6-11.1,9.9-19.1,14.7c-1.6,1-3.2,1.9-4.8,2.8c-7,4-13.9,7.5-18.6,9.7c-0.4,0.2-0.7,0.3-1.1,0.5
										c-13.2,6.2-33.6,18.6-46,19.1c-0.5,0.3-1.1,0.7-1.6,0.9c-7.8,4.2-13.8,2-18.9,5.6c-1.5,1.1-2.9,2.7-4.3,5.2
										c-0.9,3-1.5,5.8-1.6,8.5c0,1.1,0,2.1,0.1,3.1c0,0.5,0.1,1,0.2,1.5c0.6,3.5,1.9,6.6,4.2,9.2c0.3,0.4,0.7,0.7,1,1.1
										c0.8,1,1.5,1.9,2.3,2.8c3.3,3.9,6.6,7.4,8.6,12.9c3.7,3.5,17.5,16.1,19.4,18.9l16.9,10.5c4.7,0.9,8.5,1.3,11.9,1.3
										c1.3,0,2.6,0,3.8-0.2c1.2-0.1,2.4-0.3,3.5-0.5c2.8-0.5,5.6-1.3,8.6-2.3c1.2-0.4,2.5-0.8,3.9-1.3c7.6-2.5,7.8-0.6,16.9,1.5
										c2.4,0.5,4.6,0.8,6.7,1c3.6,0.3,7,0.3,10.7,0.5c2.2-0.8,3.5-1.1,4.8-1.4c0.3-0.1,0.5-0.1,0.8-0.2c0.6-0.1,1.2-0.3,1.9-0.5
										c4.2-1.4,5.2-2.4,9.3-3.7l2-2.2c15.5-9,20.6-29.2,34.2-39c4.7-4.4,7.1-7.3,13.4-9.1c9.9-8.8,23.4-5.8,34.8-10
										c15.4-5.7,16.7-17.5,22-33.4c10.2-4.4,6.3-2.4,12-11.7c4.2-6.9,9-13.1,13.3-20.1c8.3-13.3,16.5-25.4,24.6-38.3l12.6-19.1
										c7.4-14.9,16.7-27.4,26.2-39.9l54.2-78.2c7.7-10.7,19.1-27.5,27.6-36.1c2-3.3,1.6-3.3,4.2-6.3c0.4-0.5,1.8-1.9,2.2-2.3
										c2.8-2.6,1.2-1.3,3.7-2.5c3.6-9,38.7-50.4,47.4-59.6c3.1-3.3,6-6.5,8.9-9.7C953.6,1946.4,944.5,1949.1,934,1952.1z"/>
								</g>
							</g>
						</g>
					</g>
					<path fill-rule="evenodd" clip-rule="evenodd" fill="#42201F" d="M1319.2,541c-4.9,2.8-6.6,2.7-12,5.6c-5.9,3.1-6.6,4.4-11,7.4
						c-9.8,13.2-15.1,17.8-19.3,35.8c-1.9,7.9-2.3,11.7-0.5,18c1.4,4.8,6.7,11.8,3.2,13.3l-11.6,16.7c-5,15.8-3,21.8,7.9,31.5
						c-20.8,32.2-10,28.8,2,44.7c5.1,6.8,3.5,8.3,11.7,13.1c4-9.1-5.8-38.9,27.6-40.9c9.1,9.9,18.3,26.6,33,28.7
						c12.6-15.2-4.3-23.1-3.9-41c0.4-18.5,10.2-7.4,2.4-43.9c-5.6-26.3,7.1-20.2,21-34.8c13.7-14.3,13.1-26.7,32.8-28.4
						c3.9,5.1,4,12,12.4,14.1c6.1,1.5,6.5-0.6,9.4-2.6c8.3-5.6-2.1-4.8,7.7-3.9c3.3,10.1-26.3,37,19.3,39.8l0.6,8.1
						c-10.5,5.4-10.6-0.1-16.2,8.5l15,8.3c8.2-0.3,8.7,2.1,15.8-3.4c5.9-4.5,7.7-9.4,6.2-16.1c-1.3-6-15.7-29-0.2-30.4
						c4-4.4,9.3-7.3,13.7-4c6.3,4.7,2.2,6.4,1.9,15.1c7.3,3.2,10.4,2.5,16.5,1.5c-5.9,24.9,5,10.2,9.5,23.2
						c4,11.5-16.1,18.7,1.3,25.8c17-7.8,7.5-19.4,11.9-28.7c-1.7-5.4-2-10,9.2-12.5l16.6,38c2.8,12.6,3.7,29,19.5,36.5
						c3.8-4.9,9.8-21.1,13.2-28.6c7.7-16.8-2.1-18.3-1.8-26.8c-5.2-7.4-3-10.7-2.4-20.2c0.1-10.2,1.5-21.2,1.3-32.7
						c-0.1-5.4-0.5-9.7-1.6-15.7c-1-5.4-4.7-10.6-4.4-14.6l-13.4-12.4c-10.5-5.7-14.1-4.1-21.6,0.4c-5.5-4.8-10.1-10.4-16.1-15.5
						c-13.7-11.7-13-1.7-19.8-4.9c-1.9-0.9-32.7-21.3-46.3-20c-9.2,0.9-0.8,3.3-10.6,0.1c-11.8-3.9-8.7-7.7-34.5-5.7
						c-15.3,1.2-24.9,3.5-36.7,17.2c-24.1-5.1-55.1,7.1-57.8,28.8C1319.1,541.7,1321.8,539,1319.2,541L1319.2,541z"/>
					<path fill-rule="evenodd" clip-rule="evenodd" fill="#F5C9A1" d="M1572.7,684.4c-15.9-7.5-16.8-23.9-19.5-36.5l-16.6-38
						c-11.2,2.5-10.9,7.1-9.2,12.5c-4.4,9.3,5.1,20.9-11.9,28.7c-17.4-7.1,2.6-14.2-1.3-25.8c-4.5-13-15.4,1.7-9.5-23.2
						c-6.1,1.1-9.2,1.7-16.5-1.5c0.3-8.7,4.4-10.4-1.9-15.1c-4.4-3.3-9.7-0.4-13.7,4c-15.5,1.4-1.1,24.3,0.2,30.4
						c1.5,6.7-0.3,11.6-6.2,16.1c-7.1,5.4-7.6,3.1-15.8,3.4l-15-8.3c5.6-8.7,5.7-3.2,16.2-8.5l-0.6-8.1
						c-45.6-2.8-15.9-29.7-19.3-39.8c-9.8-1,0.6-1.7-7.7,3.9c-2.9,2-3.3,4-9.4,2.6c-8.4-2-8.5-9-12.4-14.1
						c-19.6,1.6-19.1,14.1-32.8,28.4c-13.9,14.6-26.6,8.4-21,34.8c7.8,36.5-2,25.4-2.4,43.9c-0.4,17.9,16.5,25.8,3.9,41
						c-14.7-2.1-23.9-18.8-33-28.7c-33.4,2-23.6,31.8-27.6,40.9c1.3,6.2,3.7,10.5,6.9,16.6l8.6,12.2c9,7.4,11.3,10.5,23.4,13.1
						c16.3,3.5,13.3-2.5,25.3-4.2c-9.9,27.1-25.2,74.5-22.4,98.6l-0.4,15.3l10.1,3.3l7.1,18.2c8.7,15.1,39.8,50.4,52.8,60.5
						l10.6,9.8c5.5-8.4,10.2-11.9,15.3-20.1l27.2-47.3c8.3-17,0.7-14.3,4.1-23.2c0.1-8.5-1.5-23.7,1.9-32.5
						c16.6-7.7,40.1-10.3,54.5-33.1c0.4-0.3,1.1-1.1,1.1-0.8c0,0.3,0.9-0.7,1.1-0.9l34.1-43.2l7.6-14c7.1-18.1,14.6-52.3,11.6-67.7
						L1572.7,684.4z"/>
					<path fill-rule="evenodd" clip-rule="evenodd" fill="#F5C99E" d="M2081.1,487.4c-1.3-2.3-3.6-4.3-7.2-5.9
						c-7.9-3.6-15.7,3.6-23.4,4.8c7.4-16.1,12.6-16.7,11.9-28.3c-0.2-3.7-2.9-6.7-6.4-7.6c-14-3.4-18.4,8.9-28.1,14.6
						c3-1.8,5.4-13.4,5.7-16.8c0.5-4.6-0.4-8.6-3.4-12.3c-10.5-12.8-21.2,1.2-26.8,11.4c-1.4,2.5-12.4,26.7-12.2,26.8
						c0,0-1.8-0.8-1.8-0.8c6.7-14.5,5-17.7,6.2-30.5c1.2-12.1,1.6-19.2-8-26.7c-12.9,2.1-17.9,13-22,27.4
						c-3.9,13.5-11.5,29.3-14.5,41c-9.8,37.8-5.5,15.9-35.7-1.8c-10.6-6.2-10.5-2.8-19.4-4.8c-11.3-4-18.8,5.8-16.6,16.7
						c3.4,16.5,35.9,51.1,37.4,70.7l10,2.9c17.3,2.7,29.1,9.5,46.2,16.5c12.3,5.1,35.9,17,45.3,19.1c3.3-6.7,4.7-7.1,8.9-12.7
						c3.2-4.3,6.4-10.2,9.4-14.8c16.2-25.1,5.9-24.6,35.4-60.8C2077.6,508.4,2086.2,496.1,2081.1,487.4z"/>
					<g>
						<path fill-rule="evenodd" clip-rule="evenodd" fill="#F6CBAE" d="M746.6,2273.4c-18.8-1-18.7-4.8-34.5-13.8
							c-16.1-9.2-21.4-19.4-35.9-27.5l-7.7-5.1l-1.4,2.1l-13.5,12.2c-7.9,9.8-32.8,22.6-43.6,27.7c-13.2,6.2-33.6,18.6-46,19.1
							c-10.9,7-18.6,0.4-24.7,11.8c-3,9.5-1.8,17.8,3.9,23.5c4.1,5.2,8.5,8.9,10.9,15.7c3.7,3.5,17.5,16.1,19.4,18.9l16.9,10.5
							c15.2,2.9,20.7,0.7,31.6-2.9c7.6-2.5,7.8-0.6,16.9,1.5c6.3,1.4,11.5,1.2,17.4,1.5c3.4-1.3,4.7-1.2,7.5-2.2
							c4.2-1.4,5.2-2.4,9.3-3.7l2-2.2c15.5-9,20.6-29.2,34.2-39c4.7-4.4,7.1-7.3,13.4-9.1c9.9-8.8,23.4-5.8,34.8-10
							c15.4-5.7,16.7-17.5,22-33.4C767,2269.7,762.7,2274.3,746.6,2273.4z"/>
						<path fill-rule="evenodd" clip-rule="evenodd" fill="#EA947B" d="M667.1,2229.1l-13.5,12.2c-7.9,9.8-32.8,22.6-43.6,27.7
							c-13.2,6.2-33.6,18.6-46,19.1c-10.9,7-18.6,0.4-24.7,11.8c-3,9.5-1.8,17.8,3.9,23.5c4.1,5.2,8.5,8.9,10.9,15.7
							c3.7,3.5,17.5,16.1,19.4,18.9l16.9,10.5c15.2,2.9,20.7,0.7,31.6-2.9c7.6-2.5,7.8-0.6,16.9,1.5c6.3,1.4,11.5,1.2,17.4,1.5
							c3.4-1.3,4.7-1.2,7.5-2.2c4.2-1.4,5.2-2.4,9.3-3.7l2-2.2c1.9-7.6,2.2-1.8,0-6.4c-9.1-1.3-10.7,7.8-25.6,5.6
							c-10.8-1.5-20.7-9.3-32.2-13.4c-5.4,6.2-9.5,14.9-17.4,15.8c-12,1.3-34.9-22.4-39.8-29.8l-13.5-18.6
							c5-11.8,15.8-11.6,33.2-18.1c38-14.2,69.4-28.9,96.4-63.5l-7.7-5.1L667.1,2229.1L667.1,2229.1z"/>
					</g>
					<g>
						<path fill-rule="evenodd" clip-rule="evenodd" fill="#1A9DA1" d="M2018.1,603.9c-9.4-2-33-14-45.3-19.1
							c-17-7-28.9-13.9-46.2-16.5l-10-2.9c-11.3,7.3-4.9,3.4-9.3,15.4L1859,720.5c-7.8,23.5-15.2,44.2-20.3,68.2
							c-3.1,14.8-11.7,55.6-17.2,67.2c-32.9,9.5-56.5,10-90.2,15.1c-9.8,1.5-21.3,5.3-29.3,5.3l-58.8,9.4c-18.7,2.5-39,4.5-59.2,4.2
							c-52.2-0.8-83-9.2-125.8-10.2c-3.4,8.9,4.2,6.2-4.1,23.2l-27.2,47.3c-5.1,8.2-9.8,11.8-15.3,20.1l-10.6-9.8
							c-12.9-10.1-44.1-45.4-52.8-60.5l-7.1-18.2l-10.1-3.3l-47.8,12.4c-24.6,6.1-50.2,11-72.2,21.4c-4.3,2-7,3.6-11.4,5.5
							c-3.8,1.7-7.1,2.1-11.7,4.2c-10,4.6-25.1,30.2-38.9,39.3c-29.4,19.4-57,34.8-85.2,54.3c-14.7,10.2-28.2,20.4-42.5,29.6
							l-63.4,41.2c-30.1,17-22.1,31.7-28.2,75c-2.8,19.6-11.7,39.2-14.9,58.9c-13.4,81.6-60.9,156.5-70.7,239.8
							c-0.9,8-2.1,19.6-1.5,27.3c1.1,13.7-1.3,15.4,12.7,19c5.1-1.7,6.4-2.1,11.7-3.1c9-0.1,28-2.9,37.1-4.8
							c12.3-2.5,25.1-3.3,37.6-6.7l22.8-1.4c5.4-3.6,10.9-4.5,14.1-9.9c6-10,4.9-41.4,6.2-54.7c7.8-81,12.6-140.6,30.7-220.5
							c11.1-49.1-0.3-27.7,25.3-43.5c40.8-25.2,67.1-30.6,104.2-51.4c16.5-9.2,77.1-37,89.9-38.4c10.9,26.8,3,52.3,5.2,82.9
							c3.4,48-12.1,130-16.9,175.4c-8,75.3-17.6,67.7-23.8,89.1c6,8.6,16.5,16,27.6,22.2c-22.3,53-59.4,103.9-92,155.8
							c-8.4,13.4-15.5,26.8-23.6,40.2l-70.2,111.5c-16.4,25.6-27.6,47.3-47.4,76.6c-6.6,9.8-16.8,26.5-24.6,33.9
							c-31.3,29.4-56.6,45.3-86.9,69.9c-19.4,15.7-39.8,29.2-57.4,46.6c-6.9,4.5-12.7,10.5-20.5,15.6c-7.4,4.8-12.3,11-19.6,19.2
							c-11.2,12.7-24.4,34.4-36,46.8c-3.4,5.4-6.1,9.7-10.8,11.4c-3,8.6-24.6,35.7-31.9,46c-5.2,7.3-10.4,14.9-15.8,21.6
							c-5.7,7.2-9.7,10.1-15.4,19.2l-8.9,15.5c-5.8,9.5-17,19.3-16.2,31.1c0.6,9.3,8.4,17.8,18.8,24.3l7.7,5.1
							c14.5,8.1,19.9,18.3,35.9,27.5c15.7,9,15.7,12.8,34.5,13.8c16.1,0.9,20.4-3.7,32.7-4.3c10.2-4.4,6.3-2.4,12-11.7
							c4.2-6.9,9-13.1,13.3-20.1c8.3-13.3,16.5-25.4,24.6-38.3l12.6-19.1c7.4-14.9,16.7-27.4,26.2-39.9l54.2-78.2
							c7.7-10.7,19.1-27.5,27.6-36.1c2-3.3,1.6-3.3,4.2-6.3c0.4-0.5,1.8-1.9,2.2-2.3c2.8-2.6,1.2-1.3,3.7-2.5
							c3.6-9,38.7-50.4,47.4-59.6c18.1-19.1,32-38.2,51.2-54c12.9-10.9,22.2-21.5,35.2-33.2c12-10.8,23.3-22.2,34.9-34.3
							l104.3-107.1c44.3-39.2,64.2-73.3,106.5-105.2l38-25.7c15.1-9.2,23.5-9.6,43.7-10.4c13-0.5,7.2-4.6,23.4-1
							c36.3,8.1,30.2,3.8,79.5,18.5c18.8,5.6,32.3,6.8,52.2,13.8c55.9,19.5,117.9,45.8,165.5,77.6c-8.7,24.5-23,52.8-30.5,78
							c-6.4,21.6-22,57.4-24,76.6c-7,23.8-7.9,46.2-10.1,69.5c-1.1,11.6-2,21.6-2.8,33.6c-0.6,10.1-0.1,25.1-2,34.4l0.5,18
							c-3.3,37.7-2.8,69.8-6.3,104.9l-3.2,36.3c7.2,3.1,11.2,2.5,17.6,5.7c11.3,5.8,2.5,3.9,10.2,10.7c7.1-0.5,1.7-1,8.5,0.5
							c3.4,0.7,6.6,1.9,10,2.5c7.8,3.1,6.3,2.1,12.8,3c11.1,1.5,5.8,4.1,11.6-0.7c19.6,2.5,47.2-3.1,60.4-14.1
							c21.2-9.2,23.6-16.5,23.1-41.9c-0.3-17.8-1.2-33.7-1.8-51.3c-0.8-22.8-6.7-87.3,0-105.2c-2.9-5.6-1.4-13.4-0.2-20.5
							c-3.6-9.1,8.4-142,13.9-158.2c0.2-17.9,6.1-39.1,11-59.1c4.3-17.2,1.8-13.9-2.2-27.3c-4.3-14.5-13.3-34.1-21.6-47
							c-26.6-41.4-95.9-109.3-130.3-143.2c-42.8-42.2-35.8-38.4-85.9-76.8l1.1-3.2c2.9-1.6,3.3-1.9,6-3.8c1.9-11.8-6.9-31.4-9-52.9
							c-0.9-9.2-2.8-18.2-4-26.7c-1.3-9.2-1.9-16.6-3.7-25.3c-3.5-17.6-6.1-34.7-8.8-51.7c-9.7-60.6-6.5-49.4,2.8-112.3
							c3.1-21.1,6.6-38.6,14.2-60c9.3-26.3,21.9-31.4,39.8-40.2c16.6-8.1,31-14.9,47.4-20.4l97.7-36.7c19.6-8.4,60.7-19.9,73-27.2
							c29.4-17.4,50.4-20.4,62.9-50.7c7.3-17.8,10-41.4,14.4-60.3c9.6-40.2,25.8-84.9,40.5-124.5c7.3-17.9,16.4-36.1,24.5-53.8
							c5.2-11.5,8.6-14.7,13.4-24.1c5.6-11.2,6.7-18.9,10.3-27.2l4.7-4.8C2022.8,608.1,2029.3,611.5,2018.1,603.9z"/>
						<path fill-rule="evenodd" clip-rule="evenodd" fill="#156D78" d="M941.6,1492.2l22.8-1.4c5.4-3.6,10.9-4.5,14.1-9.9
							c6-10,4.9-41.4,6.2-54.7c7.8-81,12.6-140.6,30.7-220.5c11.1-49.1-0.3-27.7,25.3-43.5c40.8-25.2,67.1-30.6,104.2-51.4
							c16.5-9.2,77.1-37,89.9-38.4c10.9,26.8,3,52.3,5.2,82.9c3.4,48-12.1,130-16.9,175.4c-8,75.3-17.6,67.7-23.8,89.1
							c6,8.6,16.5,16,27.6,22.2c-22.3,53-59.4,103.9-92,155.8c-8.4,13.4-15.5,26.8-23.6,40.2l-70.2,111.5
							c-16.4,25.6-27.6,47.3-47.4,76.6c-6.6,9.8-16.8,26.5-24.6,33.9c-31.3,29.4-56.6,45.3-86.9,69.9
							c-19.4,15.7-39.8,29.2-57.4,46.6c-6.9,4.5-12.7,10.5-20.5,15.6c-7.4,4.8-12.3,11-19.6,19.2c-11.2,12.7-24.4,34.4-36,46.8
							c-3.4,5.4-6.1,9.7-10.8,11.4c-3,8.6-24.6,35.7-31.9,46c-5.2,7.3-10.4,14.9-15.8,21.6c-5.7,7.2-9.7,10.1-15.4,19.2l-8.9,15.5
							c-5.8,9.5-17,19.3-16.2,31.1c0.6,9.3,8.4,17.8,18.8,24.3l7.7,5.1c14.5,8.1,19.9,18.3,35.9,27.5l3.4-7
							c-31.2-25.4-11.2-49.1-4.2-77c9-36.3,74.1-119.2,99.9-148.9c21.7-25.1,91.5-85.3,116.4-106.6l44.1-41.6
							c29.1-28.6,13.6-16.2,25.6-30.6l40.9-46c17-18.1,37.1-45.8,52.7-66.4c77-101.2,88.6-143.3,149.1-234.8
							c8.3-12.6,16.6-23.2,26.1-33.9c12-13.7,4.5-12,35.6-8.2c97.1,12,102.8-4.8,153.4-6.7c38.6-1.5,75.7-16.5,109.4-21
							c11.6-1.5,28.2-1.6,36-8.4l1.1-3.2c-6-1.9-40.4,3.2-53.3,4c-18.4,1.1-35.9,2.7-52.9,5.4c-27.3,4.5-29.5,7.2-50.8,11.1
							c-40.9,7.4-180.8,9.3-179.6-39.9l7.1-81.9c16.2,16.2,41.4,21.5,62.8,25.5c11.6,2.2,20.5,3.2,31.2,4.4
							c11.1,1.3,22.3,6.3,24.8-4.9c-7-15-76.2-24.3-96.5-40c-25.3-19.4-22.6-18.1-21.9-37.9c1.9-53.1-3.9-82-6.8-132.5
							c-1.4-24.8-8.6-64.3-22.4-82.8c-9.7-6.7-42.4,13.6-59.6,21.1c-9.9,4.3-19,6.3-28.5,11.4l-82.5,41.6
							c-18.6,10.1-36.5,17.5-54.4,28.7c-2.1-5.4-1.8-12-2-18.4c-0.5-17.2,1.9-11.7-3.3-17.2l-2.5,2.5c-4.2,6-3.2,19.9-0.4,39.7
							c-11.3-4.3-6.9-10.9-16.8-9.1c-0.5,8.1,5.7,11.8,12.8,17.6c-8.8,2.6-16.8,1.6-20.4,10.7c6.8,4.4,11,1.5,17.2-2.8l-10.2,41.4
							c-10.3,29-33.6,130.9-36.1,160.4l-13.7,79.2C939.1,1474.3,934.2,1480.4,941.6,1492.2L941.6,1492.2z"/>
						<path fill-rule="evenodd" clip-rule="evenodd" fill="#156D78" d="M1741.7,1693.9c-8.7,24.5-23,52.8-30.5,78
							c-6.4,21.6-22,57.4-24,76.6c-7,23.8-7.9,46.2-10.1,69.5c-1.1,11.6-2,21.6-2.8,33.6c-0.6,10.1-0.1,25.1-2,34.4l0.5,18
							c-3.3,37.7-2.8,69.8-6.3,104.9l-3.2,36.3c7.2,3.1,11.2,2.5,17.6,5.7c11.3,5.8,2.5,3.9,10.2,10.7c7.1-0.5,1.7-1,8.5,0.5
							c3.4,0.7,6.6,1.9,10,2.5c7.8,3.1,6.3,2.1,12.8,3c11.1,1.5,5.8,4.1,11.6-0.7c1-7.8-0.6-6.7-8.8-11.8
							c-27-16.6-33.8-68-31.9-90.4c4.7-55,25.9-95.6,23.4-125.8c-0.8-9.6-2.4-18.4-2.2-28.9c0.2-13.6,11-76.8,13.2-92.4
							c2.9-21.1,4.9-41.7,7.8-62.2c2.6-18.7,20.7-48.5,13.4-62.2C1742.6,1691.5,1746,1691.4,1741.7,1693.9L1741.7,1693.9z"/>
						<path fill-rule="evenodd" clip-rule="evenodd" fill="#156D78" d="M1926.6,568.2l-10-2.9c-11.3,7.3-4.9,3.4-9.3,15.4
							L1859,720.5c-7.8,23.5-15.2,44.2-20.3,68.2c-3.1,14.8-11.7,55.6-17.2,67.2c1,4.8-1.3,2.3,4.5,5.5c14-6.6,21.4-44.7,26.1-59.6
							c19.1-61.2,14-66.8,42.4-131.5c10.2-23.2,19.5-46.3,29.8-69.5c18.2-0.3,23.3-5.7,47.3,1.2c12.7,3.7,44.4,18.5,51.4,19.7
							l4.7-4.8c-4.9-8.6,1.6-5.3-9.6-12.9c-9.4-2-33-14-45.3-19.1C1955.8,577.7,1944,570.9,1926.6,568.2L1926.6,568.2z"/>
						<path fill-rule="evenodd" clip-rule="evenodd" fill="#156D78" d="M1306.5,1358.3c-4.6,11.8-0.5,12.1,16.4,17.7
							c18.2,6.1,72.7,19.9,88.2,21.7c25.9,2.9,61.8-10.2,86.6-18.8c4.8-1.7,7-1.2,10.3-6.9c-10.1-5.8-22.3,2.9-46.3,5.9
							C1395.5,1386.1,1332.8,1356.6,1306.5,1358.3L1306.5,1358.3z"/>
					</g>
					<g>
						<path fill-rule="evenodd" clip-rule="evenodd" fill="#F6CBAE" d="M1902.8,2261.9c-7-18-36.7-24.7-63.9-60.7l-11.3-15.1
							l-9.7-11.1c-3.4-3.2-8.2-7.7-11.4-11.1l-12.2-11c-13.2,11-40.8,16.6-60.4,14.1c-5.8,4.8-0.5,2.2-11.6,0.7
							c-6.5-0.9-5,0.1-12.8-3c-3.4-0.6-6.6-1.8-10-2.5c-6.8-1.4-1.4-1-8.5-0.5c-3.8,8.3-8.5,16.7-11.1,25.4
							c-2.5,8.2-2.1,15.2-5.2,22.6c3.2,4.9,4.3,10,7.3,15.2l7.1,8.5l19.6,10.9l5.1,2.1c9.6-0.6,16.9,6.2,26.3-2.5l2,0.9
							c34.4-6.7,66.9,38.5,84,47.1c22.8,11.4,28.7-1.2,47.7,4.5c19.9,6,34.4,9.9,42-11.4C1909.2,2271.7,1910.9,2282.7,1902.8,2261.9
							z"/>
						<path fill-rule="evenodd" clip-rule="evenodd" fill="#EA947B" d="M1691,2161.7c-3.8,8.3-8.5,16.7-11.1,25.4
							c-2.5,8.2-2.1,15.2-5.2,22.6c3.2,4.9,4.3,10,7.3,15.2l7.1,8.5l19.6,10.9l5.1,2.1c9.6-0.6,16.9,6.2,26.3-2.5
							c-1.3-8-11.2-3.8-23.5-10.7c-8.3-4.6-16.4-10.1-18.6-17.1c-3.4-11,4.1-38.5,11.5-51.3c-3.4-0.6-6.6-1.8-10-2.5
							C1692.7,2160.8,1698.1,2161.2,1691,2161.7L1691,2161.7z"/>
					</g>
					<path fill-rule="evenodd" clip-rule="evenodd" fill="#EA947B" d="M1916.7,565.3l10,2.9c-3.8-27.4-30.7-51.6-40-77.7
						c4.6-8.3,4.4-0.8,9.3-12.5c-11.3-4-18.8,5.8-16.6,16.7C1882.7,511.2,1915.2,545.7,1916.7,565.3L1916.7,565.3z"/>
					<g>
						<g>
							<path fill-rule="evenodd" clip-rule="evenodd" fill="#EA947B" d="M1289.6,727.1c1.3,6.2,3.7,10.5,6.9,16.6l8.6,12.2
								c9,7.4,11.3,10.5,23.4,13.1c16.3,3.5,13.3-2.5,25.3-4.2c-9.9,27.1-25.2,74.5-22.4,98.6l-0.4,15.3l10.1,3.3l7.1,18.2
								c8.7,15.1,39.8,50.4,52.8,60.5c-1.9-8.9-7.2-13.9-11.9-22.1c-4-7.1-7.1-15.4-10.8-22.7c-13.2-26.5-19.3-48-0.8-74.5
								c8.3-12,11.7-8.2,25.3-4.1c19.2,5.7,41.9,15.9,57.4,10.1c16.6-7.7,40.1-10.3,54.5-33.1l-5.3-2.5
								c-15.1,13.8-37.8,20.9-61.6,7.1c-15.4-8.9-43.4-33-52.7-45.6c-18.1-24.4-12.8-30.4-17.3-59l-8.2-46
								c-7.6-32.3-0.5,1.5,37.7-64.4c6.7-11.7,2.7-12.8,13.2-15c3.6,17.6-15.3,19.8,16,32.9c-6.5,6.5-5.8,7.7-6.4,15.3
								c7.5,5.9,12.4,7.5,20.7,2.3l-15-8.3c5.6-8.7,5.7-3.2,16.2-8.5l-0.6-8.1c-45.6-2.8-15.9-29.7-19.3-39.8
								c-9.8-1,0.6-1.7-7.7,3.9c-2.9,2-3.3,4-9.4,2.6c-8.4-2-8.5-9-12.4-14.1c-19.6,1.6-19.1,14.1-32.8,28.4
								c-13.9,14.6-26.6,8.4-21,34.8c7.8,36.5-2,25.4-2.4,43.9c-0.4,17.9,16.5,25.8,3.9,41c-14.7-2.1-23.9-18.8-33-28.7
								C1283.8,688.2,1293.6,718,1289.6,727.1L1289.6,727.1z"/>
							<path fill-rule="evenodd" clip-rule="evenodd" fill="#EA947B" d="M1472.5,589.4c8.3,5.6-0.4,21.2,17.9,20.6
								c3.9,7.4-0.5,4.8,4.2,10.5c4.3,5.3,7.4,4.1,12,9c-0.5,8.3-6.7,12.5-6.1,18.6c1,8.9,9.3,8.2,14.9,2.9
								c-17.4-7.1,2.6-14.2-1.3-25.8c-4.5-13-15.4,1.7-9.5-23.2c-6.1,1.1-9.2,1.7-16.5-1.5c0.3-8.7,4.4-10.4-1.9-15.1
								C1481.8,582.2,1476.5,585.1,1472.5,589.4L1472.5,589.4z"/>
							<path fill-rule="evenodd" clip-rule="evenodd" fill="#EA947B" d="M1527.3,622.3c2-10,0.5-3.1,3.4-4.6
								c5.2,11.3,2.1,12.1,11.5,25.2c6.9,9.6,8,16.7,10.3,27.9l-3.3,6.1c7.1-2.5-1.3,8.3,6.2-3.3c0.8,9.8,4.3,12.4,14.7,14l2.5-3.2
								c-15.9-7.5-16.8-23.9-19.5-36.5l-16.6-38C1525.4,612.3,1525.6,616.9,1527.3,622.3L1527.3,622.3z"/>
						</g>
					</g>
					<g>
						<path fill-rule="evenodd" clip-rule="evenodd" fill="#F6CBAE" d="M964.4,1490.8l-22.8,1.4c-12.5,3.4-25.3,4.2-37.6,6.7
							c-9.1,1.9-28.1,4.6-37.1,4.8c-5.3,1-6.6,1.4-11.7,3.1c-7.9,20.1-17.3,52.1-20.7,71.4c-2.9,16.4-6.5,55.8,13.8,55.9
							c10.7-0.6,13-6.1,19-17.8c7.2,7.9,4.2,11.2,8.3,21c3.6,8.6,7.7,16.1,17.1,14.6c13.4-7.6,8.9-19.3,11.5-31.5l0.2-4.2l1,2.6
							c10.4,12.6,7.9,24.1,31.6,32.1l3.2-4.6l6.6-19.5c9.6,8.6,13.5,11.8,25.5,12.4l5.1-6.5c10.8-21-12.7-60.6-15.8-80.7
							c-2.5-16.2,18.8-19.9,30.6-19.7c17.1,0.3,30.9,4.2,34.4-16.4C1012.6,1498.1,986.8,1503,964.4,1490.8z"/>
						<path fill-rule="evenodd" clip-rule="evenodd" fill="#EA947B" d="M855.2,1506.7c-7.9,20.1-17.3,52.1-20.7,71.4
							c-2.9,16.4-6.5,55.8,13.8,55.9c2.1-9-7.6-12.5-7.6-28.6c0-27,10.5-46.2,14.9-67.8c2.2-11,6.4-22.3,11.3-34
							C861.6,1504.6,860.3,1505,855.2,1506.7L855.2,1506.7z"/>
						<path fill-rule="evenodd" clip-rule="evenodd" fill="#EA947B" d="M903.4,1613.6l0.9,2.6l1,2.6c10.4,12.6,7.9,24.1,31.6,32.1
							l3.2-4.6c-6.8-8.6-23.4-21-28.1-38.9c-1.9-7.2,1.8-8.5-8.2-12.4C898.8,1603.1,902.8,1606.1,903.4,1613.6L903.4,1613.6z"/>
						<path fill-rule="evenodd" clip-rule="evenodd" fill="#EA947B" d="M867.2,1616.2c7.2,7.9,4.2,11.2,8.3,21
							c3.6,8.6,7.7,16.1,17.1,14.6c3.5-13.1-7.2,2.2-14.8-40.7c-1.3-7.2-0.5-7.5-9.5-12c-3.2,7.4-2.4,3.7-2.2,10.3L867.2,1616.2
							L867.2,1616.2z"/>
						<path fill-rule="evenodd" clip-rule="evenodd" fill="#EA947B" d="M946.6,1626.7c9.6,8.6,13.5,11.8,25.5,12.4l5.1-6.5
							c-10.3-5.7-15.5-0.4-25-13.3c-7.5-10.2-1.3-15.6-11.5-20.6C933.7,1609.3,941.5,1618.7,946.6,1626.7L946.6,1626.7z"/>
					</g>
					<path fill-rule="evenodd" clip-rule="evenodd" fill="#EA947B" d="M2050.6,486.3l-2.9,3c-7.5,6-12.5,5.8-13.9,17.5
						c9.9,2.2,3.4,1.8,10.5-5.2c2.6-2.5,7.6-5,9.7-6c9.5-4.7,10.4-8.8,23-3.6l2.1-3.4c0.6-4.8,1.8-2.5-3.2-5.9
						c-5.3-3.6-6-2.3-9.4-1.7C2061.5,482,2057.2,485.3,2050.6,486.3L2050.6,486.3z"/>
					<path fill-rule="evenodd" clip-rule="evenodd" fill="#070707" d="M1399,663c1.7,2.5-1.5,1.3,2.9,2.8l61,0.4
						c10.8,0,4.2,3.6,9.3-4.3C1465.7,659.9,1402.9,660.5,1399,663L1399,663z"/>
					<path fill-rule="evenodd" clip-rule="evenodd" fill="#070707" d="M1549.3,676.9l3.3-6.1c-7.3-2.1-40.6-2.5-45.9,0.6
						C1512.2,679.4,1539.8,671.9,1549.3,676.9L1549.3,676.9z"/>
					<g>
						<path fill-rule="evenodd" clip-rule="evenodd" fill="#1A9DA1" d="M2018.1,603.9c-9.4-2-33-14-45.3-19.1
							c-17-7-28.9-13.9-46.2-16.5l-10-2.9c-11.3,7.3-4.9,3.4-9.3,15.4L1859,720.5c-7.8,23.5-15.2,44.2-20.3,68.2
							c-3.1,14.8-11.7,55.6-17.2,67.2c-32.9,9.5-56.5,10-90.2,15.1c-9.8,1.5-21.3,5.3-29.3,5.3l-58.8,9.4c-18.7,2.5-39,4.5-59.2,4.2
							c-52.2-0.8-83-9.2-125.8-10.2c-3.4,8.9,4.2,6.2-4.1,23.2l-27.2,47.3c-5.1,8.2-9.8,11.8-15.3,20.1l-10.6-9.8
							c-12.9-10.1-44.1-45.4-52.8-60.5l-7.1-18.2l-10.1-3.3l-47.8,12.4c-24.6,6.1-50.2,11-72.2,21.4c-4.3,2-7,3.6-11.4,5.5
							c-3.8,1.7-7.1,2.1-11.7,4.2c-10,4.6-25.1,30.2-38.9,39.3c-29.4,19.4-57,34.8-85.2,54.3c-14.7,10.2-28.2,20.4-42.5,29.6
							l-63.4,41.2c-30.1,17-22.1,31.7-28.2,75c-2.8,19.6-11.7,39.2-14.9,58.9c-13.4,81.6-60.9,156.5-70.7,239.8
							c-0.9,8-2.1,19.6-1.5,27.3c1.1,13.7-1.3,15.4,12.7,19c5.1-1.7,6.4-2.1,11.7-3.1c9-0.1,28-2.9,37.1-4.8
							c12.3-2.5,25.1-3.3,37.6-6.7l22.8-1.4c5.4-3.6,10.9-4.5,14.1-9.9c6-10,4.9-41.4,6.2-54.7c7.8-81,12.6-140.6,30.7-220.5
							c11.1-49.1-0.3-27.7,25.3-43.5c40.8-25.2,67.1-30.6,104.2-51.4c16.5-9.2,77.1-37,89.9-38.4c10.9,26.8,3,52.3,5.2,82.9
							c3.4,48-12.1,130-16.9,175.4c-8,75.3-17.6,67.7-23.8,89.1c6,8.6,16.5,16,27.6,22.2c-22.3,53-59.4,103.9-92,155.8
							c-8.4,13.4-15.5,26.8-23.6,40.2l-70.2,111.5c-16.4,25.6-27.6,47.3-47.4,76.6c-6.6,9.8-16.8,26.5-24.6,33.9
							c-31.3,29.4-56.6,45.3-86.9,69.9c-19.4,15.7-39.8,29.2-57.4,46.6c-6.9,4.5-12.7,10.5-20.5,15.6c-7.4,4.8-12.3,11-19.6,19.2
							c-11.2,12.7-24.4,34.4-36,46.8c-3.4,5.4-6.1,9.7-10.8,11.4c-3,8.6-24.6,35.7-31.9,46c-5.2,7.3-10.4,14.9-15.8,21.6
							c-5.7,7.2-9.7,10.1-15.4,19.2l-8.9,15.5c-5.8,9.5-17,19.3-16.2,31.1c0.6,9.3,8.4,17.8,18.8,24.3l7.7,5.1
							c14.5,8.1,19.9,18.3,35.9,27.5c15.7,9,15.7,12.8,34.5,13.8c16.1,0.9,20.4-3.7,32.7-4.3c10.2-4.4,6.3-2.4,12-11.7
							c4.2-6.9,9-13.1,13.3-20.1c8.3-13.3,16.5-25.4,24.6-38.3l12.6-19.1c7.4-14.9,16.7-27.4,26.2-39.9l54.2-78.2
							c7.7-10.7,19.1-27.5,27.6-36.1c2-3.3,1.6-3.3,4.2-6.3c0.4-0.5,1.8-1.9,2.2-2.3c2.8-2.6,1.2-1.3,3.7-2.5
							c3.6-9,38.7-50.4,47.4-59.6c18.1-19.1,32-38.2,51.2-54c12.9-10.9,22.2-21.5,35.2-33.2c12-10.8,23.3-22.2,34.9-34.3
							l104.3-107.1c44.3-39.2,64.2-73.3,106.5-105.2l38-25.7c15.1-9.2,23.5-9.6,43.7-10.4c13-0.5,7.2-4.6,23.4-1
							c36.3,8.1,30.2,3.8,79.5,18.5c18.8,5.6,32.3,6.8,52.2,13.8c55.9,19.5,117.9,45.8,165.5,77.6c-8.7,24.5-23,52.8-30.5,78
							c-6.4,21.6-22,57.4-24,76.6c-7,23.8-7.9,46.2-10.1,69.5c-1.1,11.6-2,21.6-2.8,33.6c-0.6,10.1-0.1,25.1-2,34.4l0.5,18
							c-3.3,37.7-2.8,69.8-6.3,104.9l-3.2,36.3c7.2,3.1,11.2,2.5,17.6,5.7c11.3,5.8,2.5,3.9,10.2,10.7c7.1-0.5,1.7-1,8.5,0.5
							c3.4,0.7,6.6,1.9,10,2.5c7.8,3.1,6.3,2.1,12.8,3c11.1,1.5,5.8,4.1,11.6-0.7c19.6,2.5,47.2-3.1,60.4-14.1
							c21.2-9.2,23.6-16.5,23.1-41.9c-0.3-17.8-1.2-33.7-1.8-51.3c-0.8-22.8-6.7-87.3,0-105.2c-2.9-5.6-1.4-13.4-0.2-20.5
							c-3.6-9.1,8.4-142,13.9-158.2c0.2-17.9,6.1-39.1,11-59.1c4.3-17.2,1.8-13.9-2.2-27.3c-4.3-14.5-13.3-34.1-21.6-47
							c-26.6-41.4-95.9-109.3-130.3-143.2c-42.8-42.2-35.8-38.4-85.9-76.8l1.1-3.2c2.9-1.6,3.3-1.9,6-3.8c1.9-11.8-6.9-31.4-9-52.9
							c-0.9-9.2-2.8-18.2-4-26.7c-1.3-9.2-1.9-16.6-3.7-25.3c-3.5-17.6-6.1-34.7-8.8-51.7c-9.7-60.6-6.5-49.4,2.8-112.3
							c3.1-21.1,6.6-38.6,14.2-60c9.3-26.3,21.9-31.4,39.8-40.2c16.6-8.1,31-14.9,47.4-20.4l97.7-36.7c19.6-8.4,60.7-19.9,73-27.2
							c29.4-17.4,50.4-20.4,62.9-50.7c7.3-17.8,10-41.4,14.4-60.3c9.6-40.2,25.8-84.9,40.5-124.5c7.3-17.9,16.4-36.1,24.5-53.8
							c5.2-11.5,8.6-14.7,13.4-24.1c5.6-11.2,6.7-18.9,10.3-27.2l4.7-4.8C2022.8,608.1,2029.3,611.5,2018.1,603.9z"/>
						<path fill-rule="evenodd" clip-rule="evenodd" fill="#156D78" d="M941.6,1492.2l22.8-1.4c5.4-3.6,10.9-4.5,14.1-9.9
							c6-10,4.9-41.4,6.2-54.7c7.8-81,12.6-140.6,30.7-220.5c11.1-49.1-0.3-27.7,25.3-43.5c40.8-25.2,67.1-30.6,104.2-51.4
							c16.5-9.2,77.1-37,89.9-38.4c10.9,26.8,3,52.3,5.2,82.9c3.4,48-12.1,130-16.9,175.4c-8,75.3-17.6,67.7-23.8,89.1
							c6,8.6,16.5,16,27.6,22.2c-22.3,53-59.4,103.9-92,155.8c-8.4,13.4-15.5,26.8-23.6,40.2l-70.2,111.5
							c-16.4,25.6-27.6,47.3-47.4,76.6c-6.6,9.8-16.8,26.5-24.6,33.9c-31.3,29.4-56.6,45.3-86.9,69.9
							c-19.4,15.7-39.8,29.2-57.4,46.6c-6.9,4.5-12.7,10.5-20.5,15.6c-7.4,4.8-12.3,11-19.6,19.2c-11.2,12.7-24.4,34.4-36,46.8
							c-3.4,5.4-6.1,9.7-10.8,11.4c-3,8.6-24.6,35.7-31.9,46c-5.2,7.3-10.4,14.9-15.8,21.6c-5.7,7.2-9.7,10.1-15.4,19.2l-8.9,15.5
							c-5.8,9.5-17,19.3-16.2,31.1c0.6,9.3,8.4,17.8,18.8,24.3l7.7,5.1c14.5,8.1,19.9,18.3,35.9,27.5l3.4-7
							c-31.2-25.4-11.2-49.1-4.2-77c9-36.3,74.1-119.2,99.9-148.9c21.7-25.1,91.5-85.3,116.4-106.6l44.1-41.6
							c29.1-28.6,13.6-16.2,25.6-30.6l40.9-46c17-18.1,37.1-45.8,52.7-66.4c77-101.2,88.6-143.3,149.1-234.8
							c8.3-12.6,16.6-23.2,26.1-33.9c12-13.7,4.5-12,35.6-8.2c97.1,12,102.8-4.8,153.4-6.7c38.6-1.5,75.7-16.5,109.4-21
							c11.6-1.5,28.2-1.6,36-8.4l1.1-3.2c-6-1.9-40.4,3.2-53.3,4c-18.4,1.1-35.9,2.7-52.9,5.4c-27.3,4.5-29.5,7.2-50.8,11.1
							c-40.9,7.4-180.8,9.3-179.6-39.9l7.1-81.9c16.2,16.2,41.4,21.5,62.8,25.5c11.6,2.2,20.5,3.2,31.2,4.4
							c11.1,1.3,22.3,6.3,24.8-4.9c-7-15-76.2-24.3-96.5-40c-25.3-19.4-22.6-18.1-21.9-37.9c1.9-53.1-3.9-82-6.8-132.5
							c-1.4-24.8-8.6-64.3-22.4-82.8c-9.7-6.7-42.4,13.6-59.6,21.1c-9.9,4.3-19,6.3-28.5,11.4l-82.5,41.6
							c-18.6,10.1-36.5,17.5-54.4,28.7c-2.1-5.4-1.8-12-2-18.4c-0.5-17.2,1.9-11.7-3.3-17.2l-2.5,2.5c-4.2,6-3.2,19.9-0.4,39.7
							c-11.3-4.3-6.9-10.9-16.8-9.1c-0.5,8.1,5.7,11.8,12.8,17.6c-8.8,2.6-16.8,1.6-20.4,10.7c6.8,4.4,11,1.5,17.2-2.8l-10.2,41.4
							c-10.3,29-33.6,130.9-36.1,160.4l-13.7,79.2C939.1,1474.3,934.2,1480.4,941.6,1492.2L941.6,1492.2z"/>
						<path fill-rule="evenodd" clip-rule="evenodd" fill="#156D78" d="M1741.7,1693.9c-8.7,24.5-23,52.8-30.5,78
							c-6.4,21.6-22,57.4-24,76.6c-7,23.8-7.9,46.2-10.1,69.5c-1.1,11.6-2,21.6-2.8,33.6c-0.6,10.1-0.1,25.1-2,34.4l0.5,18
							c-3.3,37.7-2.8,69.8-6.3,104.9l-3.2,36.3c7.2,3.1,11.2,2.5,17.6,5.7c11.3,5.8,2.5,3.9,10.2,10.7c7.1-0.5,1.7-1,8.5,0.5
							c3.4,0.7,6.6,1.9,10,2.5c7.8,3.1,6.3,2.1,12.8,3c11.1,1.5,5.8,4.1,11.6-0.7c1-7.8-0.6-6.7-8.8-11.8
							c-27-16.6-33.8-68-31.9-90.4c4.7-55,25.9-95.6,23.4-125.8c-0.8-9.6-2.4-18.4-2.2-28.9c0.2-13.6,11-76.8,13.2-92.4
							c2.9-21.1,4.9-41.7,7.8-62.2c2.6-18.7,20.7-48.5,13.4-62.2C1742.6,1691.5,1746,1691.4,1741.7,1693.9L1741.7,1693.9z"/>
						<path fill-rule="evenodd" clip-rule="evenodd" fill="#156D78" d="M1926.6,568.2l-10-2.9c-11.3,7.3-4.9,3.4-9.3,15.4
							L1859,720.5c-7.8,23.5-15.2,44.2-20.3,68.2c-3.1,14.8-11.7,55.6-17.2,67.2c1,4.8-1.3,2.3,4.5,5.5c14-6.6,21.4-44.7,26.1-59.6
							c19.1-61.2,14-66.8,42.4-131.5c10.2-23.2,19.5-46.3,29.8-69.5c18.2-0.3,23.3-5.7,47.3,1.2c12.7,3.7,44.4,18.5,51.4,19.7
							l4.7-4.8c-4.9-8.6,1.6-5.3-9.6-12.9c-9.4-2-33-14-45.3-19.1C1955.8,577.7,1944,570.9,1926.6,568.2L1926.6,568.2z"/>
						<path fill-rule="evenodd" clip-rule="evenodd" fill="#156D78" d="M1306.5,1358.3c-4.6,11.8-0.5,12.1,16.4,17.7
							c18.2,6.1,72.7,19.9,88.2,21.7c25.9,2.9,61.8-10.2,86.6-18.8c4.8-1.7,7-1.2,10.3-6.9c-10.1-5.8-22.3,2.9-46.3,5.9
							C1395.5,1386.1,1332.8,1356.6,1306.5,1358.3L1306.5,1358.3z"/>
					</g>
				</g>
			</g>
			<g>
				
					<rect x="-57.1" y="435.4" transform="matrix(1 -5.720677e-003 5.720677e-003 1 -3.5297 0.9734)" fill="#645A93" width="450.9" height="364.2"/>
				<path fill="#7669AD" d="M210.1,799.3l184.8-1.1l-2.1-364.2l-70.3,0.4C296.6,520,249,673.9,210.1,799.3z"/>
			</g>
			<g>
				<circle fill-rule="evenodd" clip-rule="evenodd" fill="#362148" cx="189" cy="651.2" r="116.3"/>
				<g>
					<circle fill-rule="evenodd" clip-rule="evenodd" fill="#A34735" cx="231.2" cy="627.9" r="116.3"/>
					<circle fill-rule="evenodd" clip-rule="evenodd" fill="#652C21" cx="231.2" cy="627.9" r="81.2"/>
					<path fill-rule="evenodd" clip-rule="evenodd" fill="#267D8B" d="M228.3,638c65.2-63.3-14.4-181.4-14.4-181.4
						S154,585.7,228.3,638z"/>
					<path fill-rule="evenodd" clip-rule="evenodd" fill="#199876" d="M228.8,638.7c65.4-0.6,82.7-101.6,82.7-101.6
						S216.1,574.5,228.8,638.7z"/>
					<path fill-rule="evenodd" clip-rule="evenodd" fill="#267D8B" d="M228.8,638.7c6.9,65.1,109.2,72.4,109.2,72.4
						S291.5,619.8,228.8,638.7z"/>
					<path fill-rule="evenodd" clip-rule="evenodd" fill="#267D8B" d="M228.9,639.5C141.9,665.6,158,807.1,158,807.1
						S270.8,720.2,228.9,639.5z"/>
					<path fill-rule="evenodd" clip-rule="evenodd" fill="#199876" d="M228.8,638.7c-58.3-29.7-120.2,52.1-120.2,52.1
						S210.5,701.5,228.8,638.7z"/>
				</g>
			</g>
		</g>
	</g>
</g>
</svg>
